<?xml version="1.0" standalone="no"?>
<!DOCTYPE svg PUBLIC "-//W3C//DTD SVG 1.1//EN" "http://www.w3.org/Graphics/SVG/1.1/DTD/svg11.dtd" >
<svg xmlns="http://www.w3.org/2000/svg" xmlns:xlink="http://www.w3.org/1999/xlink" version="1.1">
<metadata>
Created by FontForge 20161003 at Thu Jul 26 21:22:27 2018
 By www-data
Noble Gas Lights Copyright Chequered Ink Ltd. 2018
</metadata>
<defs>
<font id="NobleGaslights" horiz-adv-x="2867" >
  <font-face 
    font-family="NobleGaslights"
    font-weight="400"
    font-stretch="normal"
    units-per-em="4096"
    panose-1="0 0 4 0 0 0 0 0 0 0"
    ascent="3276"
    descent="-820"
    x-height="3993"
    cap-height="3993"
    bbox="-307 -716 3993 4845"
    underline-thickness="204"
    underline-position="103"
    unicode-range="U+0020-2122"
  />
<missing-glyph 
d="M1638 716q42 0 72 31q30 29 30 72v2457q0 43 -30 72q-30 31 -72 31h-819q-43 0 -72 -31q-31 -29 -31 -72v-2457q0 -43 31 -72q29 -31 72 -31h819zM819 102q-297 0 -507 210t-210 507v2457q0 297 210 507t507 210h819q296 0 507 -210q210 -210 210 -507v-2457
q0 -297 -210 -507q-211 -210 -507 -210h-819z" />
    <glyph glyph-name=".notdef" 
d="M1638 716q42 0 72 31q30 29 30 72v2457q0 43 -30 72q-30 31 -72 31h-819q-43 0 -72 -31q-31 -29 -31 -72v-2457q0 -43 31 -72q29 -31 72 -31h819zM819 102q-297 0 -507 210t-210 507v2457q0 297 210 507t507 210h819q296 0 507 -210q210 -210 210 -507v-2457
q0 -297 -210 -507q-211 -210 -507 -210h-819z" />
    <glyph glyph-name="glyph1" horiz-adv-x="0" 
 />
    <glyph glyph-name="glyph2" horiz-adv-x="819" 
 />
    <glyph glyph-name="space" unicode=" " horiz-adv-x="819" 
 />
    <glyph glyph-name="exclam" unicode="!" horiz-adv-x="1228" 
d="M409 102q-127 0 -217 90t-90 217t90 217t217 90t217 -90t90 -217t-90 -217t-217 -90zM440 1173q-59 0 -118 24q-117 49 -166 166q-26 65 -40 133q-14 70 -14 142v2048q0 120 106 217q99 90 201 90q127 0 217 -90t90 -217v-2048q0 -21 8 -39q25 -59 25 -118t-25 -118
q-49 -117 -166 -166q-59 -24 -118 -24z" />
    <glyph glyph-name="quotedbl" unicode="&#x22;" 
d="M409 2560q-127 0 -217 90t-90 217v819q0 120 106 217q99 90 201 90q127 0 217 -90t90 -217v-819q0 -121 -105 -217q-99 -90 -202 -90zM1638 2560q-127 0 -217 90t-90 217v819q0 120 105 217q100 90 202 90q127 0 217 -90t90 -217v-819q0 -121 -106 -217q-99 -90 -201 -90
z" />
    <glyph glyph-name="numbersign" unicode="#" horiz-adv-x="4505" 
d="M409 921q-127 0 -217 90t-90 217q0 103 90 202q97 106 217 106h410v-615h-410zM1638 921v615h819v-615h-819zM3276 921v615h410q120 0 217 -106q90 -99 90 -202q0 -127 -90 -217t-217 -90h-410zM409 2560q-127 0 -217 90t-90 217q0 102 90 201q97 106 217 106h410v-614
h-410zM1638 2560v614h819v-614h-819zM3276 2560v614h410q120 0 217 -106q90 -99 90 -201q0 -127 -90 -217t-217 -90h-410zM1228 102q-127 0 -217 90t-90 217v3277q0 120 106 217q99 90 201 90q127 0 217 -90q91 -90 91 -217v-3277q0 -120 -106 -217q-99 -90 -202 -90z
M2867 102q-127 0 -217 90t-90 217v3277q0 120 105 217q99 90 202 90q127 0 217 -90t90 -217v-3277q0 -120 -106 -217q-99 -90 -201 -90z" />
    <glyph glyph-name="dollar" unicode="$" 
d="M1228 -307q-127 0 -217 90q-90 91 -90 217h615q0 -126 -91 -217q-90 -90 -217 -90zM921 819v819h615v-819h-615zM921 2457v819h615v-819h-615zM409 102q-127 0 -217 90t-90 217q0 103 90 202q97 105 217 105h1229q42 0 72 31q30 29 30 72v819q0 42 -30 72t-72 30h-819
q-297 0 -507 210q-210 211 -210 507v819q0 297 210 507t507 210h819q72 0 142 -14q68 -14 132 -40q117 -49 167 -166q24 -59 24 -118t-24 -118q-49 -117 -167 -166q-59 -25 -117 -25q-59 0 -118 25q-19 8 -39 8h-819q-43 0 -72 -31q-31 -29 -31 -72v-819q0 -42 31 -72
q29 -30 72 -30h819q296 0 507 -210q210 -211 210 -507v-819q0 -297 -210 -507q-211 -210 -507 -210h-1229zM921 4096q0 126 90 217q90 90 217 90t217 -90q91 -91 91 -217h-615z" />
    <glyph glyph-name="percent" unicode="%" 
d="M2048 512q-127 0 -218 90q-90 90 -90 217t90 217q91 90 218 90q126 0 217 -90q90 -90 90 -217t-90 -217q-91 -90 -217 -90zM409 2969q-127 0 -217 90t-90 217t90 217q90 91 217 91t217 -91q90 -90 90 -217t-90 -217t-217 -90zM819 102q-103 0 -202 90q-105 97 -105 217
v1229q0 296 209 507q211 210 507 210q43 0 72 30q31 30 31 72v1229q0 127 90 217t217 90q102 0 201 -90q106 -97 106 -217v-1229q0 -296 -210 -507q-210 -210 -507 -210q-42 0 -72 -30t-30 -72v-1229q0 -127 -90 -217t-217 -90z" />
    <glyph glyph-name="ampersand" unicode="&#x26;" 
d="M1228 921q-127 0 -217 90t-90 217v410q0 42 -30 72t-72 30h-410q-120 0 -217 106q-90 99 -90 202q0 126 90 217q90 90 217 90h410q296 0 507 -210q210 -211 210 -507v-410q0 -120 -106 -217q-99 -90 -202 -90zM1638 1740v615h410q120 0 217 -106q90 -99 90 -201
q0 -127 -90 -218q-91 -90 -217 -90h-410zM1536 2034q-95 171 -255 281q-163 111 -360 136v416q0 120 106 217q99 90 201 90q127 0 217 -90q91 -90 91 -217v-833z" />
    <glyph glyph-name="quotesingle" unicode="'" horiz-adv-x="1228" 
d="M409 2560q-127 0 -217 90t-90 217v819q0 120 106 217q99 90 201 90q127 0 217 -90t90 -217v-819q0 -121 -105 -217q-99 -90 -202 -90z" />
    <glyph glyph-name="parenleft" unicode="(" horiz-adv-x="2047" 
d="M975 70q-58 0 -117 24q-19 8 -39 8q-297 0 -507 210t-210 507v2457q0 297 210 507t507 210q20 0 39 8q59 24 117 24q59 0 118 -24q118 -49 166 -166q25 -59 25 -118t-25 -118q-49 -117 -166 -166q-65 -26 -133 -40q-69 -14 -141 -14q-43 0 -72 -31q-31 -29 -31 -72v-2457
q0 -43 31 -72q29 -31 72 -31q72 0 141 -14q68 -14 133 -40q117 -49 166 -166q25 -59 25 -118t-25 -118q-48 -117 -166 -166q-59 -24 -118 -24z" />
    <glyph glyph-name="parenright" unicode=")" horiz-adv-x="2047" 
d="M481 70q-59 0 -118 24q-117 49 -166 166q-24 59 -24 118t24 118q49 117 166 166q65 26 133 40q70 14 142 14q42 0 72 31q30 29 30 72v2457q0 43 -30 72q-30 31 -72 31q-72 0 -142 14q-68 14 -133 40q-117 49 -166 166q-24 59 -24 118t24 118q49 117 166 166q59 24 118 24
t118 -24q18 -8 39 -8q296 0 507 -210q210 -210 210 -507v-2457q0 -297 -210 -507q-211 -210 -507 -210q-21 0 -39 -8q-59 -24 -118 -24z" />
    <glyph glyph-name="asterisk" unicode="*" 
d="M1228 1740q-127 0 -217 90q-90 91 -90 218v409q0 43 -30 72q-30 31 -72 31h-410q-120 0 -217 105q-90 99 -90 202q0 127 90 217t217 90h410q296 0 507 -210q210 -210 210 -507v-409q0 -121 -106 -218q-99 -90 -202 -90zM1638 2560v614h410q120 0 217 -106q90 -99 90 -201
q0 -127 -90 -217q-91 -90 -217 -90h-410zM1536 2854q-95 170 -255 280q-163 111 -360 136v416q0 120 106 217q99 90 201 90q127 0 217 -90q91 -90 91 -217v-832z" />
    <glyph glyph-name="plus" unicode="+" 
d="M1228 921q-127 0 -217 90t-90 217v410q0 42 -30 72t-72 30h-410q-120 0 -217 106q-90 99 -90 202q0 126 90 217q90 90 217 90h410q296 0 507 -210q210 -211 210 -507v-410q0 -120 -106 -217q-99 -90 -202 -90zM1638 1740v615h410q120 0 217 -106q90 -99 90 -201
q0 -127 -90 -218q-91 -90 -217 -90h-410zM1536 2034q-95 171 -255 281q-163 111 -360 136v416q0 120 106 217q99 90 201 90q127 0 217 -90q91 -90 91 -217v-833z" />
    <glyph glyph-name="comma" unicode="," horiz-adv-x="1228" 
d="M378 -464q-59 0 -118 24q-117 48 -166 166q-24 59 -24 118t24 117q8 19 8 39v409q0 121 106 217q99 90 201 90q127 0 217 -90t90 -217v-409q0 -72 -14 -141q-14 -68 -40 -133q-49 -117 -166 -166q-59 -24 -118 -24z" />
    <glyph glyph-name="hyphen" unicode="-" 
d="M409 1740q-120 0 -217 106q-90 99 -90 202q0 126 90 217q90 90 217 90h1639q120 0 217 -106q90 -99 90 -201q0 -127 -90 -218q-91 -90 -217 -90h-1639z" />
    <glyph glyph-name="period" unicode="." horiz-adv-x="1228" 
d="M409 102q-127 0 -217 90t-90 217t90 217t217 90t217 -90t90 -217t-90 -217t-217 -90z" />
    <glyph glyph-name="slash" unicode="/" horiz-adv-x="2048" 
d="M409 102q-102 0 -201 90q-106 97 -106 217v1229q0 296 210 507q210 210 507 210q42 0 72 30t30 72v1229q0 127 90 217t217 90q103 0 202 -90q106 -97 106 -217v-1229q0 -296 -210 -507q-211 -210 -507 -210q-43 0 -72 -30q-31 -30 -31 -72v-1229q0 -127 -90 -217
t-217 -90z" />
    <glyph glyph-name="zero" unicode="0" 
d="M819 102q-297 0 -507 210t-210 507v2457q0 297 210 507t507 210h409q121 0 217 -106q91 -99 91 -201q0 -127 -91 -217q-90 -90 -217 -90h-409q-43 0 -72 -31q-31 -29 -31 -72v-2457q0 -43 31 -72q29 -31 72 -31h819q42 0 72 31q30 29 30 72v2457q0 21 -8 40
q-24 58 -24 117t24 118q49 118 166 166q59 24 118 24t118 -24q117 -49 167 -166q26 -65 40 -133q14 -70 14 -142v-2457q0 -297 -210 -507q-211 -210 -507 -210h-819z" />
    <glyph glyph-name="one" unicode="1" horiz-adv-x="2048" 
d="M1228 102q-127 0 -217 90t-90 217v2867q0 43 -30 72q-30 31 -72 31h-410q-127 0 -217 90t-90 217q0 102 90 201q97 106 217 106h410q296 0 507 -210q210 -210 210 -507v-2867q0 -120 -106 -217q-99 -90 -202 -90z" />
    <glyph glyph-name="two" unicode="2" 
d="M1795 70q-59 0 -118 24q-19 8 -39 8h-819q-297 0 -507 210t-210 507v819q0 296 210 507q210 210 507 210h819q42 0 72 30t30 72v819q0 43 -30 72q-30 31 -72 31h-1229q-127 0 -217 90t-90 217q0 102 90 201q97 106 217 106h1229q296 0 507 -210q210 -210 210 -507v-819
q0 -296 -210 -507q-211 -210 -507 -210h-819q-43 0 -72 -30q-31 -30 -31 -72v-819q0 -43 31 -72q29 -31 72 -31h819q72 0 142 -14q68 -14 132 -40q117 -49 167 -166q24 -59 24 -118t-24 -118q-49 -117 -167 -166q-59 -24 -117 -24z" />
    <glyph glyph-name="three" unicode="3" 
d="M409 102q-127 0 -217 90t-90 217q0 103 90 202q97 105 217 105h1229q42 0 72 31q30 29 30 72v825q163 21 305 102q138 79 238 206q35 -72 53 -150q19 -81 19 -164v-819q0 -297 -210 -507q-211 -210 -507 -210h-1229zM819 1740q-127 0 -217 90q-90 91 -90 218
q0 126 90 217q90 90 217 90h819q42 0 72 30t30 72v819q0 43 -30 72q-30 31 -72 31h-1229q-127 0 -217 90t-90 217q0 102 90 201q97 106 217 106h1229q296 0 507 -210q210 -210 210 -507v-819q0 -296 -210 -507q-211 -210 -507 -210h-819z" />
    <glyph glyph-name="four" unicode="4" 
d="M2048 102q-127 0 -218 90q-90 90 -90 217v1229q0 42 -30 72t-72 30h-819q-297 0 -507 210q-210 211 -210 507v1229q0 120 106 217q99 90 201 90q127 0 217 -90t90 -217v-1229q0 -42 31 -72q29 -30 72 -30h819q296 0 507 -210q210 -211 210 -507v-1229q0 -120 -106 -217
q-99 -90 -201 -90zM2355 2034q-95 171 -255 281q-163 111 -360 136v1235q0 120 106 217q99 90 202 90q126 0 217 -90q90 -90 90 -217v-1652z" />
    <glyph glyph-name="five" unicode="5" 
d="M662 70q-59 0 -118 24q-118 49 -166 166q-24 59 -24 118t24 118q49 117 166 166q65 26 133 40q70 14 142 14h819q42 0 72 31q30 29 30 72v819q0 42 -30 72t-72 30h-819q-297 0 -507 210q-210 211 -210 507v819q0 297 210 507t507 210h819q72 0 142 -14q68 -14 132 -40
q117 -49 167 -166q24 -59 24 -118t-24 -118q-49 -117 -167 -166q-59 -25 -117 -25q-59 0 -118 25q-19 8 -39 8h-819q-43 0 -72 -31q-31 -29 -31 -72v-819q0 -42 31 -72q29 -30 72 -30h819q296 0 507 -210q210 -211 210 -507v-819q0 -297 -210 -507q-211 -210 -507 -210h-819
q-21 0 -40 -8q-58 -24 -117 -24z" />
    <glyph glyph-name="six" unicode="6" 
d="M819 102q-297 0 -507 210t-210 507v1242q94 -171 255 -281q163 -111 359 -136v-825q0 -43 31 -72q29 -31 72 -31h819q42 0 72 31q30 29 30 72v819q0 42 -30 72t-72 30h-819q-297 0 -507 210q-210 211 -210 507v819q0 297 210 507t507 210h819q72 0 142 -14
q68 -14 132 -40q117 -49 167 -166q24 -59 24 -118t-24 -118q-49 -117 -167 -166q-59 -25 -117 -25q-59 0 -118 25q-19 8 -39 8h-819q-43 0 -72 -31q-31 -29 -31 -72v-819q0 -42 31 -72q29 -30 72 -30h819q296 0 507 -210q210 -211 210 -507v-819q0 -297 -210 -507
q-211 -210 -507 -210h-819z" />
    <glyph glyph-name="seven" unicode="7" 
d="M2048 102q-127 0 -218 90q-90 90 -90 217v2867q0 43 -30 72q-30 31 -72 31h-1229q-127 0 -217 90t-90 217q0 102 90 201q97 106 217 106h1229q296 0 507 -210q210 -210 210 -507v-2867q0 -120 -106 -217q-99 -90 -201 -90z" />
    <glyph glyph-name="eight" unicode="8" 
d="M819 102q-297 0 -507 210t-210 507v819q0 296 210 507q210 210 507 210h819q42 0 72 30t30 72v819q0 43 -30 72q-30 31 -72 31h-819q-43 0 -72 -31q-31 -29 -31 -72v-825q-162 -21 -304 -102q-139 -79 -238 -206q-35 72 -53 150q-19 81 -19 164v819q0 297 210 507
t507 210h819q296 0 507 -210q210 -210 210 -507v-819q0 -296 -210 -507q-211 -210 -507 -210h-819q-43 0 -72 -30q-31 -30 -31 -72v-819q0 -43 31 -72q29 -31 72 -31h819q42 0 72 31q30 29 30 72v825q163 21 305 102q138 79 238 206q35 -72 53 -150q19 -81 19 -164v-819
q0 -297 -210 -507q-211 -210 -507 -210h-819z" />
    <glyph glyph-name="nine" unicode="9" 
d="M819 102q-72 0 -142 14q-68 14 -133 40q-117 49 -166 166q-24 59 -24 118t24 118q48 117 166 166q59 25 118 25t117 -25q19 -8 40 -8h819q42 0 72 31q30 29 30 72v819q0 42 -30 72t-72 30h-819q-297 0 -507 210q-210 211 -210 507v819q0 297 210 507t507 210h819
q296 0 507 -210q210 -210 210 -507v-1242q-95 171 -255 281q-163 111 -360 136v825q0 43 -30 72q-30 31 -72 31h-819q-43 0 -72 -31q-31 -29 -31 -72v-819q0 -42 31 -72q29 -30 72 -30h819q296 0 507 -210q210 -211 210 -507v-819q0 -297 -210 -507q-211 -210 -507 -210
h-819z" />
    <glyph glyph-name="colon" unicode=":" horiz-adv-x="1228" 
d="M409 921q-127 0 -217 90t-90 217t90 217q90 91 217 91t217 -91q90 -90 90 -217t-90 -217t-217 -90zM409 2560q-127 0 -217 90t-90 217t90 217t217 90t217 -90t90 -217t-90 -217t-217 -90z" />
    <glyph glyph-name="semicolon" unicode=";" horiz-adv-x="1228" 
d="M378 354q-59 0 -118 24q-117 48 -166 166q-24 59 -24 118t24 117q8 19 8 40v409q0 121 106 217q99 91 201 91q127 0 217 -91q90 -90 90 -217v-409q0 -72 -14 -142q-14 -68 -40 -133q-49 -117 -166 -166q-59 -24 -118 -24zM409 2560q-127 0 -217 90t-90 217t90 217t217 90
t217 -90t90 -217t-90 -217t-217 -90z" />
    <glyph glyph-name="less" unicode="&#x3c;" 
d="M1385 889q-59 0 -117 24q-19 8 -40 8q-296 0 -507 210q-209 210 -209 507v6q162 21 304 102q139 79 238 206q35 -72 53 -150q19 -81 19 -164q0 -43 30 -72q30 -30 72 -30q72 0 142 -14q68 -14 133 -41q117 -49 166 -166q24 -59 24 -118t-24 -118q-48 -117 -166 -166
q-59 -24 -118 -24zM409 1740q-127 0 -217 90q-90 91 -90 218q0 126 90 217q90 90 217 90q43 0 72 30q31 30 31 72q0 297 209 507q211 210 507 210q21 0 40 8q58 24 117 24t118 -24q118 -49 166 -166q24 -59 24 -118t-24 -118q-49 -117 -166 -166q-65 -27 -133 -41
q-70 -13 -142 -13q-42 0 -72 -31q-30 -29 -30 -72q0 -296 -210 -507q-210 -210 -507 -210z" />
    <glyph glyph-name="equal" unicode="=" 
d="M409 1331q-120 0 -217 105q-90 100 -90 202q0 127 90 217t217 90h1639q120 0 217 -106q90 -99 90 -201q0 -127 -90 -217q-91 -90 -217 -90h-1639zM409 2150q-120 0 -217 106q-90 99 -90 201q0 127 90 217t217 90h1639q120 0 217 -105q90 -99 90 -202q0 -127 -90 -217
q-91 -90 -217 -90h-1639z" />
    <glyph glyph-name="greater" unicode="&#x3e;" 
d="M481 889q-59 0 -118 24q-117 49 -166 166q-24 59 -24 118t24 118q49 117 166 166q65 27 133 41q70 14 142 14q42 0 72 30q30 29 30 72q0 83 19 164q18 78 53 150q100 -127 238 -206q142 -81 305 -102v-6q0 -297 -210 -507q-211 -210 -507 -210q-21 0 -39 -8
q-59 -24 -118 -24zM1457 1740q-296 0 -507 210q-210 211 -210 507q0 43 -30 72q-30 31 -72 31q-72 0 -142 13q-68 14 -133 41q-117 49 -166 166q-24 59 -24 118t24 118q49 117 166 166q59 24 118 24t118 -24q18 -8 39 -8q296 0 507 -210q210 -210 210 -507q0 -42 30 -72
t72 -30q127 0 217 -90q90 -91 90 -217q0 -127 -90 -218q-90 -90 -217 -90z" />
    <glyph glyph-name="question" unicode="?" 
d="M1228 102q-127 0 -217 90t-90 217t90 217t217 90t217 -90q91 -90 91 -217t-91 -217q-90 -90 -217 -90zM1259 1173q-59 0 -118 24q-117 49 -166 166q-26 65 -40 133q-14 70 -14 142q0 296 210 507q210 210 507 210q42 0 72 30t30 72v819q0 43 -30 72q-30 31 -72 31h-1229
q-127 0 -217 90t-90 217q0 102 90 201q97 106 217 106h1229q296 0 507 -210q210 -210 210 -507v-819q0 -296 -210 -507q-211 -210 -507 -210q-43 0 -72 -30q-30 -30 -30 -72q0 -21 8 -39q24 -59 24 -118t-24 -118q-49 -117 -167 -166q-59 -24 -118 -24z" />
    <glyph glyph-name="at" unicode="@" 
d="M1795 70q-59 0 -118 24q-19 8 -39 8h-819q-297 0 -507 210t-210 507v2457q0 297 210 507t507 210h819q296 0 507 -210q210 -210 210 -507v-1638q0 -297 -210 -507q-211 -210 -507 -210q-297 0 -507 210t-210 507v1229q0 120 106 217q99 90 201 90q127 0 217 -90
q91 -90 91 -217v-1229q0 -43 30 -72q29 -30 72 -30q42 0 72 30q30 29 30 72v1638q0 43 -30 72q-30 31 -72 31h-819q-43 0 -72 -31q-31 -29 -31 -72v-2457q0 -43 31 -72q29 -31 72 -31h819q72 0 142 -14q68 -14 132 -40q117 -49 167 -166q24 -59 24 -118t-24 -118
q-49 -117 -167 -166q-59 -24 -117 -24z" />
    <glyph glyph-name="A" unicode="A" 
d="M819 1740v615h819v-615h-819zM2048 102q-127 0 -218 90q-90 90 -90 217v2867q0 43 -30 72q-30 31 -72 31h-819q-43 0 -72 -31q-31 -29 -31 -72v-2457q0 -72 -14 -142q-14 -68 -40 -133q-49 -117 -166 -166q-59 -24 -118 -24t-118 24q-117 48 -166 166q-24 59 -24 118
t24 117q8 19 8 40v2457q0 297 210 507t507 210h819q296 0 507 -210q210 -210 210 -507v-2867q0 -120 -106 -217q-99 -90 -201 -90z" />
    <glyph glyph-name="B" unicode="B" 
d="M1228 102q-127 0 -217 90t-90 217q0 103 90 202q97 105 217 105h410q42 0 72 31q30 29 30 72v825q163 21 305 102q138 79 238 206q35 -72 53 -150q19 -81 19 -164v-819q0 -297 -210 -507q-211 -210 -507 -210h-410zM378 354q-59 0 -118 24q-117 48 -166 166
q-24 59 -24 118t24 117q8 19 8 40v2457q0 297 210 507t507 210h819q296 0 507 -210q210 -210 210 -507v-819q0 -296 -210 -507q-211 -210 -507 -210h-819v615h819q42 0 72 30t30 72v819q0 43 -30 72q-30 31 -72 31h-819q-43 0 -72 -31q-31 -29 -31 -72v-2457q0 -72 -14 -142
q-14 -68 -40 -133q-49 -117 -166 -166q-59 -24 -118 -24z" />
    <glyph glyph-name="C" unicode="C" 
d="M819 102q-297 0 -507 210t-210 507v2457q0 297 210 507t507 210h819q20 0 39 8q59 24 118 24q58 0 117 -24q118 -49 167 -166q24 -59 24 -118t-24 -118q-50 -117 -167 -166q-64 -26 -132 -40q-70 -14 -142 -14h-819q-43 0 -72 -31q-31 -29 -31 -72v-2457q0 -43 31 -72
q29 -31 72 -31h1229q126 0 217 -90q90 -90 90 -217q0 -102 -90 -201q-97 -106 -217 -106h-1229z" />
    <glyph glyph-name="D" unicode="D" 
d="M1228 102q-127 0 -217 90t-90 217q0 103 90 202q97 105 217 105h410q42 0 72 31q30 29 30 72v2457q0 43 -30 72q-30 31 -72 31h-819q-43 0 -72 -31q-31 -29 -31 -72v-2457q0 -72 -14 -142q-14 -68 -40 -133q-49 -117 -166 -166q-59 -24 -118 -24t-118 24
q-117 48 -166 166q-24 59 -24 118t24 117q8 19 8 40v2457q0 297 210 507t507 210h819q296 0 507 -210q210 -210 210 -507v-2457q0 -297 -210 -507q-211 -210 -507 -210h-410z" />
    <glyph glyph-name="E" unicode="E" 
d="M819 1740v615h819q127 0 217 -90q90 -91 90 -217q0 -127 -90 -218q-90 -90 -217 -90h-819zM819 102q-297 0 -507 210t-210 507v2457q0 297 210 507t507 210h819q20 0 39 8q59 24 118 24q58 0 117 -24q118 -49 167 -166q24 -59 24 -118t-24 -118q-50 -117 -167 -166
q-64 -26 -132 -40q-70 -14 -142 -14h-819q-43 0 -72 -31q-31 -29 -31 -72v-2457q0 -43 31 -72q29 -31 72 -31h1229q126 0 217 -90q90 -90 90 -217q0 -102 -90 -201q-97 -106 -217 -106h-1229z" />
    <glyph glyph-name="F" unicode="F" 
d="M819 1740v615h819q127 0 217 -90q90 -91 90 -217q0 -127 -90 -218q-90 -90 -217 -90h-819zM409 102q-127 0 -217 90t-90 217v2867q0 297 210 507t507 210h1229q120 0 217 -106q90 -99 90 -201q0 -127 -90 -217q-91 -90 -217 -90h-1229q-43 0 -72 -31q-31 -29 -31 -72
v-2867q0 -120 -105 -217q-99 -90 -202 -90z" />
    <glyph glyph-name="G" unicode="G" 
d="M819 102q-297 0 -507 210t-210 507v2457q0 297 210 507t507 210h819q72 0 142 -14q68 -14 132 -40q117 -49 167 -166q24 -59 24 -118t-24 -118q-49 -117 -167 -166q-59 -25 -117 -25q-59 0 -118 25q-19 8 -39 8h-819q-43 0 -72 -31q-31 -29 -31 -72v-2457q0 -43 31 -72
q29 -31 72 -31h819q42 0 72 31q30 29 30 72v819q0 42 -30 72t-72 30q-127 0 -217 90q-90 91 -90 218q0 126 90 217q90 90 217 90q296 0 507 -210q210 -211 210 -507v-819q0 -297 -210 -507q-211 -210 -507 -210h-819z" />
    <glyph glyph-name="H" unicode="H" 
d="M819 1740v615h819v-615h-819zM409 102q-127 0 -217 90t-90 217v3277q0 120 106 217q99 90 201 90q127 0 217 -90t90 -217v-3277q0 -120 -105 -217q-99 -90 -202 -90zM2048 102q-127 0 -218 90q-90 90 -90 217v3277q0 120 106 217q99 90 202 90q126 0 217 -90
q90 -90 90 -217v-3277q0 -120 -106 -217q-99 -90 -201 -90z" />
    <glyph glyph-name="I" unicode="I" horiz-adv-x="1228" 
d="M409 102q-127 0 -217 90t-90 217v3277q0 120 106 217q99 90 201 90q127 0 217 -90t90 -217v-3277q0 -120 -105 -217q-99 -90 -202 -90z" />
    <glyph glyph-name="J" unicode="J" 
d="M638 102q-72 0 -142 14q-68 14 -133 40q-117 49 -166 166q-24 59 -24 118t24 118q49 117 166 166q59 25 118 25t118 -25q18 -8 39 -8h819q43 0 72 31q31 29 31 72v2867q0 120 105 217q99 90 202 90q127 0 217 -90t90 -217v-2867q0 -297 -210 -507t-507 -210h-819z" />
    <glyph glyph-name="K" unicode="K" 
d="M2048 102q-127 0 -218 90q-90 90 -90 217v1235q163 21 305 102q138 79 238 206q35 -72 53 -150q19 -81 19 -164v-1229q0 -120 -106 -217q-99 -90 -201 -90zM102 3686q0 120 106 217q99 90 201 90q127 0 217 -90t90 -217v-1235q-196 -25 -359 -136q-161 -110 -255 -281
v1652zM409 102q-127 0 -217 90t-90 217v1229q0 296 210 507q210 210 507 210h819q42 0 72 30t30 72v1229q0 120 106 217q99 90 202 90q126 0 217 -90q90 -90 90 -217v-1229q0 -296 -210 -507q-211 -210 -507 -210h-819q-43 0 -72 -30q-31 -30 -31 -72v-1229
q0 -120 -105 -217q-99 -90 -202 -90z" />
    <glyph glyph-name="L" unicode="L" 
d="M819 102q-297 0 -507 210t-210 507v2867q0 120 106 217q99 90 201 90q127 0 217 -90t90 -217v-2867q0 -43 31 -72q29 -31 72 -31h1229q120 0 217 -105q90 -99 90 -202q0 -127 -90 -217q-91 -90 -217 -90h-1229z" />
    <glyph glyph-name="M" unicode="M" horiz-adv-x="4505" 
d="M409 102q-127 0 -217 90t-90 217v2867q0 297 210 507t507 210h819q296 0 507 -210q210 -210 210 -507v-2048q0 -120 -106 -217q-99 -90 -201 -90q-127 0 -218 90q-90 90 -90 217v2048q0 43 -30 72q-30 31 -72 31h-819q-43 0 -72 -31q-31 -29 -31 -72v-2867
q0 -120 -105 -217q-99 -90 -202 -90zM3686 102q-127 0 -217 90t-90 217v2867q0 43 -31 72q-29 31 -72 31h-825q-21 162 -102 304q-79 139 -206 238q72 35 150 53q81 19 164 19h819q297 0 507 -210t210 -507v-2867q0 -120 -106 -217q-99 -90 -201 -90z" />
    <glyph glyph-name="N" unicode="N" 
d="M409 102q-127 0 -217 90t-90 217v2867q0 297 210 507t507 210h819q296 0 507 -210q210 -210 210 -507v-2867q0 -120 -106 -217q-99 -90 -201 -90q-127 0 -218 90q-90 90 -90 217v2867q0 43 -30 72q-30 31 -72 31h-819q-43 0 -72 -31q-31 -29 -31 -72v-2867
q0 -120 -105 -217q-99 -90 -202 -90z" />
    <glyph glyph-name="O" unicode="O" 
d="M819 102q-297 0 -507 210t-210 507v2457q0 72 14 142q14 68 40 133q49 117 166 166q59 24 118 24t118 -24q117 -48 166 -166q25 -59 25 -118t-25 -117q-8 -19 -8 -40v-2457q0 -43 31 -72q29 -31 72 -31h819q42 0 72 31q30 29 30 72v2457q0 43 -30 72q-30 31 -72 31h-410
q-127 0 -217 90t-90 217q0 102 90 201q97 106 217 106h410q296 0 507 -210q210 -210 210 -507v-2457q0 -297 -210 -507q-211 -210 -507 -210h-819z" />
    <glyph glyph-name="P" unicode="P" 
d="M409 102q-127 0 -217 90t-90 217v2867q0 297 210 507t507 210h819q296 0 507 -210q210 -210 210 -507v-1638q0 -297 -210 -507q-211 -210 -507 -210h-410q-127 0 -217 90t-90 217q0 103 90 202q97 106 217 106h410q42 0 72 30q30 29 30 72v1638q0 43 -30 72
q-30 31 -72 31h-819q-43 0 -72 -31q-31 -29 -31 -72v-2867q0 -120 -105 -217q-99 -90 -202 -90z" />
    <glyph glyph-name="Q" unicode="Q" 
d="M2048 -716q-127 0 -218 90q-90 90 -90 217v409q0 42 -30 72t-72 30h-819q-297 0 -507 210t-210 507v2457q0 72 14 142q14 68 40 133q49 117 166 166q59 24 118 24t118 -24q117 -48 166 -166q25 -59 25 -118t-25 -117q-8 -19 -8 -40v-2457q0 -43 31 -72q29 -31 72 -31h819
q296 0 507 -209q210 -211 210 -507v-409q0 -121 -106 -217q-99 -90 -201 -90zM2355 396q-95 170 -255 280q-163 112 -360 136v2464q0 43 -30 72q-30 31 -72 31h-410q-127 0 -217 90t-90 217q0 102 90 201q97 106 217 106h410q296 0 507 -210q210 -210 210 -507v-2880z" />
    <glyph glyph-name="R" unicode="R" 
d="M2048 102q-127 0 -218 90q-90 90 -90 217v1235q163 21 305 102q138 79 238 206q35 -72 53 -150q19 -81 19 -164v-1229q0 -120 -106 -217q-99 -90 -201 -90zM409 102q-127 0 -217 90t-90 217v2867q0 297 210 507t507 210h819q296 0 507 -210q210 -210 210 -507v-819
q0 -296 -210 -507q-211 -210 -507 -210h-410q-127 0 -217 90q-90 91 -90 218q0 102 90 201q97 106 217 106h410q42 0 72 30t30 72v819q0 43 -30 72q-30 31 -72 31h-819q-43 0 -72 -31q-31 -29 -31 -72v-2867q0 -120 -105 -217q-99 -90 -202 -90z" />
    <glyph glyph-name="S" unicode="S" 
d="M409 102q-127 0 -217 90t-90 217q0 103 90 202q97 105 217 105h1229q42 0 72 31q30 29 30 72v819q0 42 -30 72t-72 30h-819q-297 0 -507 210q-210 211 -210 507v819q0 297 210 507t507 210h819q72 0 142 -14q68 -14 132 -40q117 -49 167 -166q24 -59 24 -118t-24 -118
q-49 -117 -167 -166q-59 -25 -117 -25q-59 0 -118 25q-19 8 -39 8h-819q-43 0 -72 -31q-31 -29 -31 -72v-819q0 -42 31 -72q29 -30 72 -30h819q296 0 507 -210q210 -211 210 -507v-819q0 -297 -210 -507q-211 -210 -507 -210h-1229z" />
    <glyph glyph-name="T" unicode="T" 
d="M409 3379q-127 0 -217 90t-90 217q0 102 90 201q97 106 217 106h832q-170 -94 -280 -255q-111 -163 -136 -359h-416zM1228 102q-127 0 -217 90t-90 217v2867q0 297 210 507t507 210h410q120 0 217 -106q90 -99 90 -201q0 -127 -90 -217q-91 -90 -217 -90h-410
q-43 0 -72 -31q-30 -29 -30 -72v-2867q0 -120 -106 -217q-99 -90 -202 -90z" />
    <glyph glyph-name="U" unicode="U" 
d="M819 102q-297 0 -507 210t-210 507v2867q0 120 106 217q99 90 201 90q127 0 217 -90t90 -217v-2867q0 -43 31 -72q29 -31 72 -31h819q42 0 72 31q30 29 30 72v2867q0 120 106 217q99 90 202 90q126 0 217 -90q90 -90 90 -217v-2867q0 -297 -210 -507q-211 -210 -507 -210
h-819z" />
    <glyph glyph-name="V" unicode="V" 
d="M440 354q-59 0 -118 24q-117 49 -166 166q-26 65 -40 133q-14 70 -14 142v2867q0 127 90 217t217 90q103 0 202 -90q105 -97 105 -217v-2867q0 -21 8 -40q25 -58 25 -117t-25 -118q-49 -118 -166 -166q-59 -24 -118 -24zM1228 102q-127 0 -217 90t-90 217q0 103 90 202
q97 105 217 105h410q42 0 72 31q30 29 30 72v2867q0 127 90 217q91 90 218 90q102 0 201 -90q106 -97 106 -217v-2867q0 -297 -210 -507q-211 -210 -507 -210h-410z" />
    <glyph glyph-name="W" unicode="W" horiz-adv-x="4505" 
d="M819 102q-297 0 -507 210t-210 507v2867q0 120 106 217q99 90 201 90q127 0 217 -90t90 -217v-2867q0 -43 31 -72q29 -31 72 -31h825q21 -162 102 -304q79 -139 206 -238q-72 -35 -150 -53q-81 -19 -164 -19h-819zM2457 102q-296 0 -507 210q-210 210 -210 507v2048
q0 120 106 217q99 90 202 90q126 0 217 -90q90 -90 90 -217v-2048q0 -43 30 -72q30 -31 72 -31h819q43 0 72 31q31 29 31 72v2867q0 120 105 217q100 90 202 90q127 0 217 -90t90 -217v-2867q0 -297 -210 -507t-507 -210h-819z" />
    <glyph glyph-name="X" unicode="X" 
d="M2048 102q-127 0 -218 90q-90 90 -90 217v1235q163 21 305 102q138 79 238 206q35 -72 53 -150q19 -81 19 -164v-1229q0 -120 -106 -217q-99 -90 -201 -90zM174 2143q-35 72 -53 150q-19 81 -19 164v1229q0 120 106 217q99 90 201 90q127 0 217 -90t90 -217v-1235
q-162 -21 -304 -102q-139 -79 -238 -206zM409 102q-127 0 -217 90t-90 217v1229q0 296 210 507q210 210 507 210h819q42 0 72 30t30 72v1229q0 120 106 217q99 90 202 90q126 0 217 -90q90 -90 90 -217v-1229q0 -296 -210 -507q-211 -210 -507 -210h-819q-43 0 -72 -30
q-31 -30 -31 -72v-1229q0 -120 -105 -217q-99 -90 -202 -90z" />
    <glyph glyph-name="Y" unicode="Y" 
d="M1228 102q-127 0 -217 90t-90 217v1229q0 42 -30 72t-72 30q-297 0 -507 210q-210 211 -210 507v1229q0 120 106 217q99 90 201 90q127 0 217 -90t90 -217v-1229q0 -42 31 -72q29 -30 72 -30q296 0 507 -210q210 -211 210 -507v-1229q0 -120 -106 -217q-99 -90 -202 -90z
M1631 1740q-20 163 -101 305q-80 138 -206 238q72 35 150 53q80 19 164 19q42 0 72 30t30 72v1229q0 120 106 217q99 90 202 90q126 0 217 -90q90 -90 90 -217v-1229q0 -296 -210 -507q-211 -210 -507 -210h-7z" />
    <glyph glyph-name="Z" unicode="Z" 
d="M819 102q-297 0 -507 210t-210 507v819q0 296 210 507q210 210 507 210h819q42 0 72 30t30 72v819q0 43 -30 72q-30 31 -72 31h-819q-21 0 -40 -8q-58 -25 -117 -25t-118 25q-118 49 -166 166q-24 59 -24 118t24 118q49 117 166 166q65 26 133 40q70 14 142 14h819
q296 0 507 -210q210 -210 210 -507v-819q0 -296 -210 -507q-211 -210 -507 -210h-819q-43 0 -72 -30q-31 -30 -31 -72v-819q0 -43 31 -72q29 -31 72 -31h1229q120 0 217 -105q90 -99 90 -202q0 -127 -90 -217q-91 -90 -217 -90h-1229z" />
    <glyph glyph-name="bracketleft" unicode="[" horiz-adv-x="2047" 
d="M819 102q-297 0 -507 210t-210 507v2457q0 297 210 507t507 210q127 0 217 -90t90 -217t-90 -217t-217 -90q-43 0 -72 -31q-31 -29 -31 -72v-2457q0 -43 31 -72q29 -31 72 -31q127 0 217 -90t90 -217t-90 -217t-217 -90z" />
    <glyph glyph-name="backslash" unicode="\" horiz-adv-x="2048" 
d="M1228 102q-127 0 -217 90t-90 217v1229q0 42 -30 72t-72 30q-297 0 -507 210q-210 211 -210 507v1229q0 120 106 217q99 90 201 90q127 0 217 -90t90 -217v-1229q0 -42 31 -72q29 -30 72 -30q296 0 507 -210q210 -211 210 -507v-1229q0 -120 -106 -217q-99 -90 -202 -90z
" />
    <glyph glyph-name="bracketright" unicode="]" horiz-adv-x="2047" 
d="M512 102q-127 0 -218 90q-90 90 -90 217t90 217q91 90 218 90q42 0 72 31q30 29 30 72v2457q0 43 -30 72q-30 31 -72 31q-127 0 -218 90q-90 90 -90 217t90 217q91 90 218 90q296 0 507 -210q209 -210 209 -507v-2457q0 -297 -209 -507q-211 -210 -507 -210z" />
    <glyph glyph-name="asciicircum" unicode="^" 
d="M409 1740q-127 0 -217 90q-90 91 -90 218v1228q0 72 14 142q14 68 40 133q49 117 166 166q59 24 118 24t118 -24q117 -48 166 -166q25 -59 25 -118t-25 -117q-8 -19 -8 -40v-1228q0 -121 -105 -218q-99 -90 -202 -90zM2048 1740q-127 0 -218 90q-90 91 -90 218v1228
q0 43 -30 72q-30 31 -72 31h-410q-120 0 -217 105q-90 100 -90 202q0 127 90 217t217 90h410q296 0 507 -210q210 -210 210 -507v-1228q0 -121 -106 -218q-99 -90 -201 -90z" />
    <glyph glyph-name="underscore" unicode="_" 
d="M409 102q-127 0 -217 90t-90 217q0 103 90 202q97 105 217 105h1639q120 0 217 -105q90 -99 90 -202q0 -127 -90 -217q-91 -90 -217 -90h-1639z" />
    <glyph glyph-name="grave" unicode="`" horiz-adv-x="2047" 
d="M1409 4166q-59 0 -117 24q-19 8 -40 8q-72 0 -141 14q-68 14 -133 40q-117 49 -166 166q-24 59 -24 118t24 118q48 117 166 166q59 25 118 25q58 0 117 -25q19 -8 39 -8q72 0 142 -14q68 -14 133 -40q117 -49 166 -166q24 -59 24 -118t-24 -118q-48 -117 -166 -166
q-59 -24 -118 -24z" />
    <glyph glyph-name="a" unicode="a" 
d="M819 1740v615h819v-615h-819zM2048 102q-127 0 -218 90q-90 90 -90 217v2867q0 43 -30 72q-30 31 -72 31h-819q-43 0 -72 -31q-31 -29 -31 -72v-2457q0 -72 -14 -142q-14 -68 -40 -133q-49 -117 -166 -166q-59 -24 -118 -24t-118 24q-117 48 -166 166q-24 59 -24 118
t24 117q8 19 8 40v2457q0 297 210 507t507 210h819q296 0 507 -210q210 -210 210 -507v-2867q0 -120 -106 -217q-99 -90 -201 -90z" />
    <glyph glyph-name="b" unicode="b" 
d="M1228 102q-127 0 -217 90t-90 217q0 103 90 202q97 105 217 105h410q42 0 72 31q30 29 30 72v825q163 21 305 102q138 79 238 206q35 -72 53 -150q19 -81 19 -164v-819q0 -297 -210 -507q-211 -210 -507 -210h-410zM378 354q-59 0 -118 24q-117 48 -166 166
q-24 59 -24 118t24 117q8 19 8 40v2457q0 297 210 507t507 210h819q296 0 507 -210q210 -210 210 -507v-819q0 -296 -210 -507q-211 -210 -507 -210h-819v615h819q42 0 72 30t30 72v819q0 43 -30 72q-30 31 -72 31h-819q-43 0 -72 -31q-31 -29 -31 -72v-2457q0 -72 -14 -142
q-14 -68 -40 -133q-49 -117 -166 -166q-59 -24 -118 -24z" />
    <glyph glyph-name="c" unicode="c" 
d="M819 102q-297 0 -507 210t-210 507v2457q0 297 210 507t507 210h819q20 0 39 8q59 24 118 24q58 0 117 -24q118 -49 167 -166q24 -59 24 -118t-24 -118q-50 -117 -167 -166q-64 -26 -132 -40q-70 -14 -142 -14h-819q-43 0 -72 -31q-31 -29 -31 -72v-2457q0 -43 31 -72
q29 -31 72 -31h1229q126 0 217 -90q90 -90 90 -217q0 -102 -90 -201q-97 -106 -217 -106h-1229z" />
    <glyph glyph-name="d" unicode="d" 
d="M1228 102q-127 0 -217 90t-90 217q0 103 90 202q97 105 217 105h410q42 0 72 31q30 29 30 72v2457q0 43 -30 72q-30 31 -72 31h-819q-43 0 -72 -31q-31 -29 -31 -72v-2457q0 -72 -14 -142q-14 -68 -40 -133q-49 -117 -166 -166q-59 -24 -118 -24t-118 24
q-117 48 -166 166q-24 59 -24 118t24 117q8 19 8 40v2457q0 297 210 507t507 210h819q296 0 507 -210q210 -210 210 -507v-2457q0 -297 -210 -507q-211 -210 -507 -210h-410z" />
    <glyph glyph-name="e" unicode="e" 
d="M819 1740v615h819q127 0 217 -90q90 -91 90 -217q0 -127 -90 -218q-90 -90 -217 -90h-819zM819 102q-297 0 -507 210t-210 507v2457q0 297 210 507t507 210h819q20 0 39 8q59 24 118 24q58 0 117 -24q118 -49 167 -166q24 -59 24 -118t-24 -118q-50 -117 -167 -166
q-64 -26 -132 -40q-70 -14 -142 -14h-819q-43 0 -72 -31q-31 -29 -31 -72v-2457q0 -43 31 -72q29 -31 72 -31h1229q126 0 217 -90q90 -90 90 -217q0 -102 -90 -201q-97 -106 -217 -106h-1229z" />
    <glyph glyph-name="f" unicode="f" 
d="M819 1740v615h819q127 0 217 -90q90 -91 90 -217q0 -127 -90 -218q-90 -90 -217 -90h-819zM409 102q-127 0 -217 90t-90 217v2867q0 297 210 507t507 210h1229q120 0 217 -106q90 -99 90 -201q0 -127 -90 -217q-91 -90 -217 -90h-1229q-43 0 -72 -31q-31 -29 -31 -72
v-2867q0 -120 -105 -217q-99 -90 -202 -90z" />
    <glyph glyph-name="g" unicode="g" 
d="M819 102q-297 0 -507 210t-210 507v2457q0 297 210 507t507 210h819q72 0 142 -14q68 -14 132 -40q117 -49 167 -166q24 -59 24 -118t-24 -118q-49 -117 -167 -166q-59 -25 -117 -25q-59 0 -118 25q-19 8 -39 8h-819q-43 0 -72 -31q-31 -29 -31 -72v-2457q0 -43 31 -72
q29 -31 72 -31h819q42 0 72 31q30 29 30 72v819q0 42 -30 72t-72 30q-127 0 -217 90q-90 91 -90 218q0 126 90 217q90 90 217 90q296 0 507 -210q210 -211 210 -507v-819q0 -297 -210 -507q-211 -210 -507 -210h-819z" />
    <glyph glyph-name="h" unicode="h" 
d="M819 1740v615h819v-615h-819zM409 102q-127 0 -217 90t-90 217v3277q0 120 106 217q99 90 201 90q127 0 217 -90t90 -217v-3277q0 -120 -105 -217q-99 -90 -202 -90zM2048 102q-127 0 -218 90q-90 90 -90 217v3277q0 120 106 217q99 90 202 90q126 0 217 -90
q90 -90 90 -217v-3277q0 -120 -106 -217q-99 -90 -201 -90z" />
    <glyph glyph-name="i" unicode="i" horiz-adv-x="1228" 
d="M409 102q-127 0 -217 90t-90 217v3277q0 120 106 217q99 90 201 90q127 0 217 -90t90 -217v-3277q0 -120 -105 -217q-99 -90 -202 -90z" />
    <glyph glyph-name="j" unicode="j" 
d="M638 102q-72 0 -142 14q-68 14 -133 40q-117 49 -166 166q-24 59 -24 118t24 118q49 117 166 166q59 25 118 25t118 -25q18 -8 39 -8h819q43 0 72 31q31 29 31 72v2867q0 120 105 217q99 90 202 90q127 0 217 -90t90 -217v-2867q0 -297 -210 -507t-507 -210h-819z" />
    <glyph glyph-name="k" unicode="k" 
d="M2048 102q-127 0 -218 90q-90 90 -90 217v1235q163 21 305 102q138 79 238 206q35 -72 53 -150q19 -81 19 -164v-1229q0 -120 -106 -217q-99 -90 -201 -90zM102 3686q0 120 106 217q99 90 201 90q127 0 217 -90t90 -217v-1235q-196 -25 -359 -136q-161 -110 -255 -281
v1652zM409 102q-127 0 -217 90t-90 217v1229q0 296 210 507q210 210 507 210h819q42 0 72 30t30 72v1229q0 120 106 217q99 90 202 90q126 0 217 -90q90 -90 90 -217v-1229q0 -296 -210 -507q-211 -210 -507 -210h-819q-43 0 -72 -30q-31 -30 -31 -72v-1229
q0 -120 -105 -217q-99 -90 -202 -90z" />
    <glyph glyph-name="l" unicode="l" 
d="M819 102q-297 0 -507 210t-210 507v2867q0 120 106 217q99 90 201 90q127 0 217 -90t90 -217v-2867q0 -43 31 -72q29 -31 72 -31h1229q120 0 217 -105q90 -99 90 -202q0 -127 -90 -217q-91 -90 -217 -90h-1229z" />
    <glyph glyph-name="m" unicode="m" horiz-adv-x="4505" 
d="M409 102q-127 0 -217 90t-90 217v2867q0 297 210 507t507 210h819q296 0 507 -210q210 -210 210 -507v-2048q0 -120 -106 -217q-99 -90 -201 -90q-127 0 -218 90q-90 90 -90 217v2048q0 43 -30 72q-30 31 -72 31h-819q-43 0 -72 -31q-31 -29 -31 -72v-2867
q0 -120 -105 -217q-99 -90 -202 -90zM3686 102q-127 0 -217 90t-90 217v2867q0 43 -31 72q-29 31 -72 31h-825q-21 162 -102 304q-79 139 -206 238q72 35 150 53q81 19 164 19h819q297 0 507 -210t210 -507v-2867q0 -120 -106 -217q-99 -90 -201 -90z" />
    <glyph glyph-name="n" unicode="n" 
d="M409 102q-127 0 -217 90t-90 217v2867q0 297 210 507t507 210h819q296 0 507 -210q210 -210 210 -507v-2867q0 -120 -106 -217q-99 -90 -201 -90q-127 0 -218 90q-90 90 -90 217v2867q0 43 -30 72q-30 31 -72 31h-819q-43 0 -72 -31q-31 -29 -31 -72v-2867
q0 -120 -105 -217q-99 -90 -202 -90z" />
    <glyph glyph-name="o" unicode="o" 
d="M819 102q-297 0 -507 210t-210 507v2457q0 72 14 142q14 68 40 133q49 117 166 166q59 24 118 24t118 -24q117 -48 166 -166q25 -59 25 -118t-25 -117q-8 -19 -8 -40v-2457q0 -43 31 -72q29 -31 72 -31h819q42 0 72 31q30 29 30 72v2457q0 43 -30 72q-30 31 -72 31h-410
q-127 0 -217 90t-90 217q0 102 90 201q97 106 217 106h410q296 0 507 -210q210 -210 210 -507v-2457q0 -297 -210 -507q-211 -210 -507 -210h-819z" />
    <glyph glyph-name="p" unicode="p" 
d="M409 102q-127 0 -217 90t-90 217v2867q0 297 210 507t507 210h819q296 0 507 -210q210 -210 210 -507v-1638q0 -297 -210 -507q-211 -210 -507 -210h-410q-127 0 -217 90t-90 217q0 103 90 202q97 106 217 106h410q42 0 72 30q30 29 30 72v1638q0 43 -30 72
q-30 31 -72 31h-819q-43 0 -72 -31q-31 -29 -31 -72v-2867q0 -120 -105 -217q-99 -90 -202 -90z" />
    <glyph glyph-name="q" unicode="q" 
d="M2048 -716q-127 0 -218 90q-90 90 -90 217v409q0 42 -30 72t-72 30h-819q-297 0 -507 210t-210 507v2457q0 72 14 142q14 68 40 133q49 117 166 166q59 24 118 24t118 -24q117 -48 166 -166q25 -59 25 -118t-25 -117q-8 -19 -8 -40v-2457q0 -43 31 -72q29 -31 72 -31h819
q296 0 507 -209q210 -211 210 -507v-409q0 -121 -106 -217q-99 -90 -201 -90zM2355 396q-95 170 -255 280q-163 112 -360 136v2464q0 43 -30 72q-30 31 -72 31h-410q-127 0 -217 90t-90 217q0 102 90 201q97 106 217 106h410q296 0 507 -210q210 -210 210 -507v-2880z" />
    <glyph glyph-name="r" unicode="r" 
d="M2048 102q-127 0 -218 90q-90 90 -90 217v1235q163 21 305 102q138 79 238 206q35 -72 53 -150q19 -81 19 -164v-1229q0 -120 -106 -217q-99 -90 -201 -90zM409 102q-127 0 -217 90t-90 217v2867q0 297 210 507t507 210h819q296 0 507 -210q210 -210 210 -507v-819
q0 -296 -210 -507q-211 -210 -507 -210h-410q-127 0 -217 90q-90 91 -90 218q0 102 90 201q97 106 217 106h410q42 0 72 30t30 72v819q0 43 -30 72q-30 31 -72 31h-819q-43 0 -72 -31q-31 -29 -31 -72v-2867q0 -120 -105 -217q-99 -90 -202 -90z" />
    <glyph glyph-name="s" unicode="s" 
d="M409 102q-127 0 -217 90t-90 217q0 103 90 202q97 105 217 105h1229q42 0 72 31q30 29 30 72v819q0 42 -30 72t-72 30h-819q-297 0 -507 210q-210 211 -210 507v819q0 297 210 507t507 210h819q72 0 142 -14q68 -14 132 -40q117 -49 167 -166q24 -59 24 -118t-24 -118
q-49 -117 -167 -166q-59 -25 -117 -25q-59 0 -118 25q-19 8 -39 8h-819q-43 0 -72 -31q-31 -29 -31 -72v-819q0 -42 31 -72q29 -30 72 -30h819q296 0 507 -210q210 -211 210 -507v-819q0 -297 -210 -507q-211 -210 -507 -210h-1229z" />
    <glyph glyph-name="t" unicode="t" 
d="M409 3379q-127 0 -217 90t-90 217q0 102 90 201q97 106 217 106h832q-170 -94 -280 -255q-111 -163 -136 -359h-416zM1228 102q-127 0 -217 90t-90 217v2867q0 297 210 507t507 210h410q120 0 217 -106q90 -99 90 -201q0 -127 -90 -217q-91 -90 -217 -90h-410
q-43 0 -72 -31q-30 -29 -30 -72v-2867q0 -120 -106 -217q-99 -90 -202 -90z" />
    <glyph glyph-name="u" unicode="u" 
d="M819 102q-297 0 -507 210t-210 507v2867q0 120 106 217q99 90 201 90q127 0 217 -90t90 -217v-2867q0 -43 31 -72q29 -31 72 -31h819q42 0 72 31q30 29 30 72v2867q0 120 106 217q99 90 202 90q126 0 217 -90q90 -90 90 -217v-2867q0 -297 -210 -507q-211 -210 -507 -210
h-819z" />
    <glyph glyph-name="v" unicode="v" 
d="M440 354q-59 0 -118 24q-117 49 -166 166q-26 65 -40 133q-14 70 -14 142v2867q0 127 90 217t217 90q103 0 202 -90q105 -97 105 -217v-2867q0 -21 8 -40q25 -58 25 -117t-25 -118q-49 -118 -166 -166q-59 -24 -118 -24zM1228 102q-127 0 -217 90t-90 217q0 103 90 202
q97 105 217 105h410q42 0 72 31q30 29 30 72v2867q0 127 90 217q91 90 218 90q102 0 201 -90q106 -97 106 -217v-2867q0 -297 -210 -507q-211 -210 -507 -210h-410z" />
    <glyph glyph-name="w" unicode="w" horiz-adv-x="4505" 
d="M819 102q-297 0 -507 210t-210 507v2867q0 120 106 217q99 90 201 90q127 0 217 -90t90 -217v-2867q0 -43 31 -72q29 -31 72 -31h825q21 -162 102 -304q79 -139 206 -238q-72 -35 -150 -53q-81 -19 -164 -19h-819zM2457 102q-296 0 -507 210q-210 210 -210 507v2048
q0 120 106 217q99 90 202 90q126 0 217 -90q90 -90 90 -217v-2048q0 -43 30 -72q30 -31 72 -31h819q43 0 72 31q31 29 31 72v2867q0 120 105 217q100 90 202 90q127 0 217 -90t90 -217v-2867q0 -297 -210 -507t-507 -210h-819z" />
    <glyph glyph-name="x" unicode="x" 
d="M2048 102q-127 0 -218 90q-90 90 -90 217v1235q163 21 305 102q138 79 238 206q35 -72 53 -150q19 -81 19 -164v-1229q0 -120 -106 -217q-99 -90 -201 -90zM174 2143q-35 72 -53 150q-19 81 -19 164v1229q0 120 106 217q99 90 201 90q127 0 217 -90t90 -217v-1235
q-162 -21 -304 -102q-139 -79 -238 -206zM409 102q-127 0 -217 90t-90 217v1229q0 296 210 507q210 210 507 210h819q42 0 72 30t30 72v1229q0 120 106 217q99 90 202 90q126 0 217 -90q90 -90 90 -217v-1229q0 -296 -210 -507q-211 -210 -507 -210h-819q-43 0 -72 -30
q-31 -30 -31 -72v-1229q0 -120 -105 -217q-99 -90 -202 -90z" />
    <glyph glyph-name="y" unicode="y" 
d="M1228 102q-127 0 -217 90t-90 217v1229q0 42 -30 72t-72 30q-297 0 -507 210q-210 211 -210 507v1229q0 120 106 217q99 90 201 90q127 0 217 -90t90 -217v-1229q0 -42 31 -72q29 -30 72 -30q296 0 507 -210q210 -211 210 -507v-1229q0 -120 -106 -217q-99 -90 -202 -90z
M1631 1740q-20 163 -101 305q-80 138 -206 238q72 35 150 53q80 19 164 19q42 0 72 30t30 72v1229q0 120 106 217q99 90 202 90q126 0 217 -90q90 -90 90 -217v-1229q0 -296 -210 -507q-211 -210 -507 -210h-7z" />
    <glyph glyph-name="z" unicode="z" 
d="M819 102q-297 0 -507 210t-210 507v819q0 296 210 507q210 210 507 210h819q42 0 72 30t30 72v819q0 43 -30 72q-30 31 -72 31h-819q-21 0 -40 -8q-58 -25 -117 -25t-118 25q-118 49 -166 166q-24 59 -24 118t24 118q49 117 166 166q65 26 133 40q70 14 142 14h819
q296 0 507 -210q210 -210 210 -507v-819q0 -296 -210 -507q-211 -210 -507 -210h-819q-43 0 -72 -30q-31 -30 -31 -72v-819q0 -43 31 -72q29 -31 72 -31h1229q120 0 217 -105q90 -99 90 -202q0 -127 -90 -217q-91 -90 -217 -90h-1229z" />
    <glyph glyph-name="braceleft" unicode="{" 
d="M1385 70q-59 0 -117 24q-19 8 -40 8q-296 0 -507 210q-209 210 -209 507v825q162 21 304 102q139 79 238 206q35 -72 53 -150q19 -81 19 -164v-819q0 -43 30 -72q30 -31 72 -31q72 0 142 -14q68 -14 133 -40q117 -49 166 -166q24 -59 24 -118t-24 -118
q-48 -117 -166 -166q-59 -24 -118 -24zM409 1740q-127 0 -217 90q-90 91 -90 218q0 126 90 217q90 90 217 90q43 0 72 30q31 30 31 72v819q0 297 209 507q211 210 507 210q21 0 40 8q58 24 117 24t118 -24q118 -49 166 -166q24 -59 24 -118t-24 -118q-49 -117 -166 -166
q-65 -26 -133 -40q-70 -14 -142 -14q-42 0 -72 -31q-30 -29 -30 -72v-819q0 -296 -210 -507q-210 -210 -507 -210z" />
    <glyph glyph-name="bar" unicode="|" horiz-adv-x="1228" 
d="M409 -307q-127 0 -217 90q-90 91 -90 217v4096q0 126 90 217q90 90 217 90t217 -90q90 -91 90 -217v-4096q0 -126 -90 -217q-90 -90 -217 -90z" />
    <glyph glyph-name="braceright" unicode="}" 
d="M481 70q-59 0 -118 24q-117 49 -166 166q-24 59 -24 118t24 118q49 117 166 166q65 26 133 40q70 14 142 14q42 0 72 31q30 29 30 72v819q0 296 210 507q211 210 507 210q127 0 217 -90q90 -91 90 -217q0 -127 -90 -218q-90 -90 -217 -90q-42 0 -72 -30t-30 -72v-819
q0 -297 -210 -507q-211 -210 -507 -210q-21 0 -39 -8q-59 -24 -118 -24zM812 2143q-35 72 -53 150q-19 81 -19 164v819q0 43 -30 72q-30 31 -72 31q-72 0 -142 14q-68 14 -133 40q-117 49 -166 166q-24 59 -24 118t24 118q49 117 166 166q59 24 118 24t118 -24q18 -8 39 -8
q296 0 507 -210q210 -210 210 -507v-825q-163 -21 -305 -102q-138 -79 -238 -206z" />
    <glyph glyph-name="asciitilde" unicode="~" 
d="M686 1708q-59 0 -118 24q-118 49 -166 166q-24 59 -24 118t24 118q49 117 166 167q65 26 133 40q70 14 142 14h819q20 0 39 8q59 24 118 24q58 0 117 -24q118 -49 167 -166q24 -59 24 -118t-24 -118q-50 -117 -167 -167q-64 -26 -132 -40q-70 -14 -142 -14h-819
q-21 0 -40 -8q-58 -24 -117 -24z" />
    <glyph glyph-name="exclamdown" unicode="&#xa1;" horiz-adv-x="1228" 
d="M409 102q-102 0 -201 90q-106 97 -106 217v2048q0 72 14 142q14 68 40 133q49 117 166 166q59 24 118 24t118 -24q117 -49 166 -166q25 -59 25 -118t-25 -118q-8 -18 -8 -39v-2048q0 -127 -90 -217t-217 -90zM409 3379q-127 0 -217 90t-90 217t90 217t217 90t217 -90
t90 -217t-90 -217t-217 -90z" />
    <glyph glyph-name="cent" unicode="&#xa2;" 
d="M1228 -307q-127 0 -217 90q-90 91 -90 217h615q0 -126 -91 -217q-90 -90 -217 -90zM921 819v2457h615v-2457h-615zM819 102q-297 0 -507 210t-210 507v2457q0 297 210 507t507 210h819q20 0 39 8q59 24 118 24q58 0 117 -24q118 -49 167 -166q24 -59 24 -118t-24 -118
q-50 -117 -167 -166q-64 -26 -132 -40q-70 -14 -142 -14h-819q-43 0 -72 -31q-31 -29 -31 -72v-2457q0 -43 31 -72q29 -31 72 -31h1229q126 0 217 -90q90 -90 90 -217q0 -102 -90 -201q-97 -106 -217 -106h-1229zM921 4096q0 126 90 217q90 90 217 90t217 -90
q91 -91 91 -217h-615z" />
    <glyph glyph-name="sterling" unicode="&#xa3;" 
d="M409 1740q-127 0 -217 90q-90 91 -90 218q0 126 90 217q90 90 217 90v-615zM1228 1740v615h410q120 0 217 -106q90 -99 90 -201q0 -127 -90 -218q-90 -90 -217 -90h-410zM1228 102q-296 0 -507 210q-209 210 -209 507v2457q0 297 209 507q211 210 507 210h820
q72 0 141 -14q68 -14 133 -40q117 -49 166 -166q25 -59 25 -118t-25 -118q-48 -117 -166 -166q-59 -25 -118 -25t-117 25q-19 8 -39 8h-820q-42 0 -72 -31q-30 -29 -30 -72v-2457q0 -43 30 -72q30 -31 72 -31h1229q121 0 217 -105q90 -99 90 -202q0 -127 -90 -217t-217 -90
h-1229z" />
    <glyph glyph-name="currency" unicode="&#xa4;" 
d="M1638 716q42 0 72 31q30 29 30 72v2457q0 43 -30 72q-30 31 -72 31h-819q-43 0 -72 -31q-31 -29 -31 -72v-2457q0 -43 31 -72q29 -31 72 -31h819zM819 102q-297 0 -507 210t-210 507v2457q0 297 210 507t507 210h819q296 0 507 -210q210 -210 210 -507v-2457
q0 -297 -210 -507q-211 -210 -507 -210h-819z" />
    <glyph glyph-name="yen" unicode="&#xa5;" 
d="M409 921q-127 0 -217 90t-90 217q0 103 90 202q97 106 217 106h410v-615h-410zM1638 921v615h410q120 0 217 -106q90 -99 90 -202q0 -127 -90 -217q-91 -90 -217 -90h-410zM1228 102q-127 0 -217 90t-90 217v1229q0 42 -30 72t-72 30q-297 0 -507 210q-210 211 -210 507
v1229q0 120 106 217q99 90 201 90q127 0 217 -90t90 -217v-1229q0 -42 31 -72q29 -30 72 -30q296 0 507 -210q210 -211 210 -507v-1229q0 -120 -106 -217q-99 -90 -202 -90zM1631 1740q-20 163 -101 305q-80 138 -206 238q72 35 150 53q80 19 164 19q42 0 72 30t30 72v1229
q0 120 106 217q99 90 202 90q126 0 217 -90q90 -90 90 -217v-1229q0 -296 -210 -507q-211 -210 -507 -210h-7z" />
    <glyph glyph-name="brokenbar" unicode="&#xa6;" horiz-adv-x="1228" 
d="M409 -307q-127 0 -217 90q-90 91 -90 217v1228q0 121 106 217q99 91 201 91q127 0 217 -91q90 -90 90 -217v-1228q0 -126 -90 -217q-90 -90 -217 -90zM409 2560q-127 0 -217 90t-90 217v1229q0 126 90 217q90 90 217 90t217 -90q90 -91 90 -217v-1229q0 -121 -105 -217
q-99 -90 -202 -90z" />
    <glyph glyph-name="section" unicode="&#xa7;" 
d="M1638 716q42 0 72 31q30 29 30 72v2457q0 43 -30 72q-30 31 -72 31h-819q-43 0 -72 -31q-31 -29 -31 -72v-2457q0 -43 31 -72q29 -31 72 -31h819zM819 102q-297 0 -507 210t-210 507v2457q0 297 210 507t507 210h819q296 0 507 -210q210 -210 210 -507v-2457
q0 -297 -210 -507q-211 -210 -507 -210h-819z" />
    <glyph glyph-name="dieresis" unicode="&#xa8;" 
d="M819 4198q-127 0 -217 90t-90 217t90 217t217 90t217 -90t90 -217t-90 -217t-217 -90zM1638 4198q-127 0 -217 90t-90 217t90 217t217 90t217 -90t90 -217t-90 -217t-217 -90z" />
    <glyph glyph-name="copyright" unicode="&#xa9;" 
d="M1638 716q42 0 72 31q30 29 30 72v2457q0 43 -30 72q-30 31 -72 31h-819q-43 0 -72 -31q-31 -29 -31 -72v-2457q0 -43 31 -72q29 -31 72 -31h819zM819 102q-297 0 -507 210t-210 507v2457q0 297 210 507t507 210h819q296 0 507 -210q210 -210 210 -507v-2457
q0 -297 -210 -507q-211 -210 -507 -210h-819z" />
    <glyph glyph-name="ordfeminine" unicode="&#xaa;" 
d="M819 1740v615h819v-615h-819zM2048 102q-127 0 -218 90q-90 90 -90 217v2867q0 43 -30 72q-30 31 -72 31h-819q-43 0 -72 -31q-31 -29 -31 -72v-2457q0 -72 -14 -142q-14 -68 -40 -133q-49 -117 -166 -166q-59 -24 -118 -24t-118 24q-117 48 -166 166q-24 59 -24 118
t24 117q8 19 8 40v2457q0 297 210 507t507 210h819q296 0 507 -210q210 -210 210 -507v-2867q0 -120 -106 -217q-99 -90 -201 -90z" />
    <glyph glyph-name="guillemotleft" unicode="&#xab;" horiz-adv-x="3686" 
d="M1385 889q-59 0 -117 24q-19 8 -40 8q-296 0 -507 210q-209 210 -209 507q0 42 -31 72q-29 30 -72 30q-127 0 -217 90q-90 91 -90 218q0 126 90 217q90 90 217 90q297 0 507 -210q210 -211 210 -507q0 -43 30 -72q30 -30 72 -30q72 0 142 -14q68 -14 133 -41
q117 -49 166 -166q24 -59 24 -118t-24 -118q-48 -117 -166 -166q-59 -24 -118 -24zM2819 889q-59 0 -118 24q-19 8 -39 8q-297 0 -507 210t-210 507q0 42 -30 72t-72 30q-127 0 -217 90q-90 91 -90 218q0 126 90 217q90 90 217 90q296 0 507 -210q210 -211 210 -507
q0 -43 30 -72q29 -30 72 -30q72 0 142 -14q68 -14 132 -41q117 -49 167 -166q24 -59 24 -118t-24 -118q-49 -117 -167 -166q-59 -24 -117 -24zM1054 2143q-99 127 -238 206q-142 81 -304 102v6q0 297 209 507q211 210 507 210q21 0 40 8q58 24 117 24t118 -24
q118 -49 166 -166q24 -59 24 -118t-24 -118q-49 -117 -166 -166q-65 -27 -133 -41q-70 -13 -142 -13q-42 0 -72 -31q-30 -29 -30 -72q0 -83 -19 -164q-18 -78 -53 -150zM2487 2143q-99 127 -237 206q-143 81 -305 102v6q0 297 210 507t507 210q20 0 39 8q59 24 118 24
q58 0 117 -24q118 -49 167 -166q24 -59 24 -118t-24 -118q-50 -117 -167 -166q-64 -27 -132 -41q-70 -13 -142 -13q-43 0 -72 -31q-30 -29 -30 -72q0 -83 -19 -164q-18 -78 -54 -150z" />
    <glyph glyph-name="logicalnot" unicode="&#xac;" 
d="M2048 921q-127 0 -218 90q-90 90 -90 217v410q0 42 -30 72t-72 30h-1229q-127 0 -217 90q-90 91 -90 218q0 102 90 201q97 106 217 106h1229q296 0 507 -210q210 -211 210 -507v-410q0 -120 -106 -217q-99 -90 -201 -90z" />
    <glyph glyph-name="uni00AD" unicode="&#xad;" 
d="M409 2560q-127 0 -217 90t-90 217q0 102 90 201q97 106 217 106h1639q120 0 217 -106q90 -99 90 -201q0 -127 -90 -217q-91 -90 -217 -90h-1639z" />
    <glyph glyph-name="registered" unicode="&#xae;" 
d="M1638 716q42 0 72 31q30 29 30 72v2457q0 43 -30 72q-30 31 -72 31h-819q-43 0 -72 -31q-31 -29 -31 -72v-2457q0 -43 31 -72q29 -31 72 -31h819zM819 102q-297 0 -507 210t-210 507v2457q0 297 210 507t507 210h819q296 0 507 -210q210 -210 210 -507v-2457
q0 -297 -210 -507q-211 -210 -507 -210h-819z" />
    <glyph glyph-name="macron" unicode="&#xaf;" 
d="M409 3379q-127 0 -217 90t-90 217q0 102 90 201q97 106 217 106h1639q120 0 217 -106q90 -99 90 -201q0 -127 -90 -217q-91 -90 -217 -90h-1639z" />
    <glyph glyph-name="degree" unicode="&#xb0;" 
d="M819 1740q-297 0 -507 210q-210 211 -210 507v819q0 72 14 142q14 68 40 133q49 117 166 166q59 24 118 24t118 -24q117 -48 166 -166q25 -59 25 -118t-25 -117q-8 -19 -8 -40v-819q0 -42 31 -72q29 -30 72 -30h819q42 0 72 30t30 72v819q0 43 -30 72q-30 31 -72 31h-410
q-127 0 -217 90t-90 217q0 102 90 201q97 106 217 106h410q296 0 507 -210q210 -210 210 -507v-819q0 -296 -210 -507q-211 -210 -507 -210h-819z" />
    <glyph glyph-name="plusminus" unicode="&#xb1;" 
d="M409 102q-127 0 -217 90t-90 217q0 103 90 202q97 105 217 105h1639q120 0 217 -105q90 -99 90 -202q0 -127 -90 -217q-91 -90 -217 -90h-1639zM1228 921q-127 0 -217 90t-90 217v410q0 42 -30 72t-72 30h-410q-120 0 -217 106q-90 99 -90 202q0 126 90 217q90 90 217 90
h410q296 0 507 -210q210 -211 210 -507v-410q0 -120 -106 -217q-99 -90 -202 -90zM1638 1740v615h410q120 0 217 -106q90 -99 90 -201q0 -127 -90 -218q-91 -90 -217 -90h-410zM1536 2034q-95 171 -255 281q-163 111 -360 136v416q0 120 106 217q99 90 201 90q127 0 217 -90
q91 -90 91 -217v-833z" />
    <glyph glyph-name="uni00B2" unicode="&#xb2;" 
d="M1795 1708q-59 0 -118 24q-19 8 -39 8h-819q-297 0 -507 210q-210 211 -210 507q0 297 210 507t507 210h819q42 0 72 30t30 72q0 43 -30 72q-30 31 -72 31h-1229q-127 0 -217 90t-90 217q0 102 90 201q97 106 217 106h1229q296 0 507 -210q210 -210 210 -507
q0 -296 -210 -507q-211 -209 -507 -209h-819q-43 0 -72 -31q-31 -29 -31 -72q0 -42 31 -72q29 -30 72 -30h819q72 0 142 -14q68 -14 132 -40q117 -50 167 -167q24 -59 24 -118t-24 -118q-49 -117 -167 -166q-59 -24 -117 -24z" />
    <glyph glyph-name="uni00B3" unicode="&#xb3;" 
d="M409 1740q-127 0 -217 90q-90 91 -90 218q0 102 90 201q97 106 217 106h1229q42 0 72 30t30 72v7q163 20 305 101q138 80 238 206q35 -72 53 -150q19 -80 19 -164q0 -296 -210 -507q-211 -210 -507 -210h-1229zM819 2560q-127 0 -217 90t-90 217t90 217t217 90h819
q42 0 72 30t30 72q0 43 -30 72q-30 31 -72 31h-1229q-127 0 -217 90t-90 217q0 102 90 201q97 106 217 106h1229q296 0 507 -210q210 -210 210 -507q0 -296 -210 -507q-211 -209 -507 -209h-819z" />
    <glyph glyph-name="acute" unicode="&#xb4;" horiz-adv-x="2047" 
d="M1096 4166q-59 0 -118 24q-118 49 -166 166q-24 59 -24 118t24 118q49 117 166 166q65 26 133 40q69 14 141 14q21 0 40 8q58 25 117 25t118 -25q118 -49 166 -166q24 -59 24 -118t-24 -118q-49 -117 -166 -166q-65 -26 -133 -40q-70 -14 -142 -14q-20 0 -39 -8
q-59 -24 -117 -24z" />
    <glyph glyph-name="mu" unicode="&#xb5;" 
d="M174 1324q-35 72 -53 150q-19 80 -19 164v2048q0 120 106 217q99 90 201 90q127 0 217 -90t90 -217v-2055q-162 -20 -304 -101q-139 -80 -238 -206zM409 102q-127 0 -217 90t-90 217v410q0 296 210 507q210 210 507 210h819q42 0 72 30q30 29 30 72v2048q0 120 106 217
q99 90 202 90q126 0 217 -90q90 -90 90 -217v-2048q0 -297 -210 -507q-211 -210 -507 -210h-819q-43 0 -72 -30q-31 -30 -31 -72v-410q0 -120 -105 -217q-99 -90 -202 -90z" />
    <glyph glyph-name="paragraph" unicode="&#xb6;" horiz-adv-x="4505" 
d="M2048 102q-103 0 -202 90q-106 97 -106 217v2867q0 43 -30 72q-30 31 -72 31h-819q-43 0 -72 -31q-31 -29 -31 -72v-1638q0 -43 31 -72q29 -30 72 -30h409q121 0 217 -106q91 -99 91 -202q0 -127 -91 -217q-90 -90 -217 -90h-409q-297 0 -507 210t-210 507v1638
q0 297 210 507t507 210h819q296 0 507 -210q210 -210 210 -507v-2867q0 -127 -90 -217q-91 -90 -217 -90zM2867 102q-127 0 -217 90t-90 217v2867q0 297 209 507q211 210 507 210q127 0 217 -90q91 -90 91 -217t-91 -217q-90 -90 -217 -90q-42 0 -72 -31q-30 -29 -30 -72
v-2867q0 -120 -106 -217q-99 -90 -201 -90z" />
    <glyph glyph-name="periodcentered" unicode="&#xb7;" horiz-adv-x="1228" 
d="M409 1740q-127 0 -217 90q-90 91 -90 218q0 126 90 217q90 90 217 90t217 -90q90 -91 90 -217q0 -127 -90 -218q-90 -90 -217 -90z" />
    <glyph glyph-name="cedilla" unicode="&#xb8;" horiz-adv-x="1228" 
d="M378 -464q-59 0 -118 24q-117 48 -166 166q-24 59 -24 118t24 117q8 19 8 39v409q0 121 106 217q99 90 201 90q127 0 217 -90t90 -217v-409q0 -72 -14 -141q-14 -68 -40 -133q-49 -117 -166 -166q-59 -24 -118 -24z" />
    <glyph glyph-name="uni00B9" unicode="&#xb9;" horiz-adv-x="2048" 
d="M1228 1740q-127 0 -217 90q-90 91 -90 218v1228q0 43 -30 72q-30 31 -72 31h-410q-127 0 -217 90t-90 217q0 102 90 201q97 106 217 106h410q296 0 507 -210q210 -210 210 -507v-1228q0 -121 -106 -218q-99 -90 -202 -90z" />
    <glyph glyph-name="ordmasculine" unicode="&#xba;" 
d="M819 102q-297 0 -507 210t-210 507v2457q0 72 14 142q14 68 40 133q49 117 166 166q59 24 118 24t118 -24q117 -48 166 -166q25 -59 25 -118t-25 -117q-8 -19 -8 -40v-2457q0 -43 31 -72q29 -31 72 -31h819q42 0 72 31q30 29 30 72v2457q0 43 -30 72q-30 31 -72 31h-410
q-127 0 -217 90t-90 217q0 102 90 201q97 106 217 106h410q296 0 507 -210q210 -210 210 -507v-2457q0 -297 -210 -507q-211 -210 -507 -210h-819z" />
    <glyph glyph-name="guillemotright" unicode="&#xbb;" horiz-adv-x="4505" 
d="M481 889q-59 0 -118 24q-117 49 -166 166q-24 59 -24 118t24 118q49 117 166 166q65 27 133 41q70 14 142 14q42 0 72 30q30 29 30 72q0 296 210 507q211 210 507 210q127 0 217 -90q90 -91 90 -217q0 -127 -90 -218q-90 -90 -217 -90q-42 0 -72 -30t-30 -72
q0 -297 -210 -507q-211 -210 -507 -210q-21 0 -39 -8q-59 -24 -118 -24zM1915 889q-59 0 -118 24q-118 49 -166 166q-24 59 -24 118t24 118q49 117 166 166q65 27 133 41q69 14 142 14q42 0 72 30q30 29 30 72q0 296 210 507q210 210 507 210q127 0 217 -90q90 -91 90 -217
q0 -127 -90 -218q-90 -90 -217 -90q-43 0 -72 -30q-31 -30 -31 -72q0 -297 -209 -507q-211 -210 -507 -210q-21 0 -40 -8q-58 -24 -117 -24zM812 2143q-35 72 -53 150q-19 81 -19 164q0 43 -30 72q-30 31 -72 31q-72 0 -142 13q-68 14 -133 41q-117 49 -166 166
q-24 59 -24 118t24 118q49 117 166 166q59 24 118 24t118 -24q18 -8 39 -8q296 0 507 -210q210 -210 210 -507v-6q-163 -21 -305 -102q-138 -79 -238 -206zM2246 2143q-35 72 -53 150q-19 81 -19 164q0 43 -30 72q-30 31 -72 31q-73 0 -142 13q-68 14 -133 41
q-117 49 -166 166q-24 59 -24 118t24 118q48 117 166 166q59 24 118 24t117 -24q19 -8 40 -8q296 0 507 -210q209 -210 209 -507v-6q-162 -21 -304 -102q-139 -79 -238 -206z" />
    <glyph glyph-name="onequarter" unicode="&#xbc;" 
d="M1638 716q42 0 72 31q30 29 30 72v2457q0 43 -30 72q-30 31 -72 31h-819q-43 0 -72 -31q-31 -29 -31 -72v-2457q0 -43 31 -72q29 -31 72 -31h819zM819 102q-297 0 -507 210t-210 507v2457q0 297 210 507t507 210h819q296 0 507 -210q210 -210 210 -507v-2457
q0 -297 -210 -507q-211 -210 -507 -210h-819z" />
    <glyph glyph-name="onehalf" unicode="&#xbd;" 
d="M1638 716q42 0 72 31q30 29 30 72v2457q0 43 -30 72q-30 31 -72 31h-819q-43 0 -72 -31q-31 -29 -31 -72v-2457q0 -43 31 -72q29 -31 72 -31h819zM819 102q-297 0 -507 210t-210 507v2457q0 297 210 507t507 210h819q296 0 507 -210q210 -210 210 -507v-2457
q0 -297 -210 -507q-211 -210 -507 -210h-819z" />
    <glyph glyph-name="threequarters" unicode="&#xbe;" 
d="M1638 716q42 0 72 31q30 29 30 72v2457q0 43 -30 72q-30 31 -72 31h-819q-43 0 -72 -31q-31 -29 -31 -72v-2457q0 -43 31 -72q29 -31 72 -31h819zM819 102q-297 0 -507 210t-210 507v2457q0 297 210 507t507 210h819q296 0 507 -210q210 -210 210 -507v-2457
q0 -297 -210 -507q-211 -210 -507 -210h-819z" />
    <glyph glyph-name="questiondown" unicode="&#xbf;" 
d="M819 102q-297 0 -507 210t-210 507v819q0 296 210 507q210 210 507 210q42 0 72 30t30 72q0 21 -8 39q-24 59 -24 118t24 118q49 117 166 166q59 24 118 24t118 -24q117 -49 166 -166q27 -65 41 -133q14 -70 14 -142q0 -296 -210 -507q-211 -210 -507 -210q-43 0 -72 -30
q-31 -30 -31 -72v-819q0 -43 31 -72q29 -31 72 -31h1229q126 0 217 -90q90 -90 90 -217q0 -102 -90 -201q-97 -106 -217 -106h-1229zM1228 3379q-127 0 -217 90t-90 217t90 217t217 90t217 -90q91 -90 91 -217t-91 -217q-90 -90 -217 -90z" />
    <glyph glyph-name="Agrave" unicode="&#xc0;" 
d="M819 1740v615h819v-615h-819zM2048 102q-127 0 -218 90q-90 90 -90 217v2867q0 43 -30 72q-30 31 -72 31h-819q-43 0 -72 -31q-31 -29 -31 -72v-2457q0 -72 -14 -142q-14 -68 -40 -133q-49 -117 -166 -166q-59 -24 -118 -24t-118 24q-117 48 -166 166q-24 59 -24 118
t24 117q8 19 8 40v2457q0 297 210 507t507 210h819q296 0 507 -210q210 -210 210 -507v-2867q0 -120 -106 -217q-99 -90 -201 -90zM1385 4166q-59 0 -117 24q-19 8 -40 8q-72 0 -141 14q-68 14 -133 40q-117 49 -166 166q-24 59 -24 118t24 118q48 117 166 166q59 25 118 25
q58 0 117 -25q19 -8 39 -8q72 0 142 -14q68 -14 133 -40q117 -49 166 -166q24 -59 24 -118t-24 -118q-48 -117 -166 -166q-59 -24 -118 -24z" />
    <glyph glyph-name="Aacute" unicode="&#xc1;" 
d="M819 1740v615h819v-615h-819zM2048 102q-127 0 -218 90q-90 90 -90 217v2867q0 43 -30 72q-30 31 -72 31h-819q-43 0 -72 -31q-31 -29 -31 -72v-2457q0 -72 -14 -142q-14 -68 -40 -133q-49 -117 -166 -166q-59 -24 -118 -24t-118 24q-117 48 -166 166q-24 59 -24 118
t24 117q8 19 8 40v2457q0 297 210 507t507 210h819q296 0 507 -210q210 -210 210 -507v-2867q0 -120 -106 -217q-99 -90 -201 -90zM1072 4166q-59 0 -118 24q-118 49 -166 166q-24 59 -24 118t24 118q49 117 166 166q65 26 133 40q69 14 141 14q21 0 40 8q58 25 117 25
t118 -25q118 -49 166 -166q24 -59 24 -118t-24 -118q-49 -117 -166 -166q-65 -26 -133 -40q-70 -14 -142 -14q-20 0 -39 -8q-59 -24 -117 -24z" />
    <glyph glyph-name="Acircumflex" unicode="&#xc2;" 
d="M819 1740v615h819v-615h-819zM2048 102q-127 0 -218 90q-90 90 -90 217v2867q0 43 -30 72q-30 31 -72 31h-819q-43 0 -72 -31q-31 -29 -31 -72v-2457q0 -72 -14 -142q-14 -68 -40 -133q-49 -117 -166 -166q-59 -24 -118 -24t-118 24q-117 48 -166 166q-24 59 -24 118
t24 117q8 19 8 40v2457q0 297 210 507t507 210h819q296 0 507 -210q210 -210 210 -507v-2867q0 -120 -106 -217q-99 -90 -201 -90zM1072 4166q-59 0 -118 24q-118 49 -166 166q-24 59 -24 118t24 118q49 117 166 166q65 26 133 40q69 14 141 14t142 -14q68 -14 133 -40
q117 -49 166 -166q24 -59 24 -118t-24 -118q-48 -117 -166 -166q-59 -24 -118 -24t-117 24q-19 8 -40 8q-20 0 -39 -8q-59 -24 -117 -24z" />
    <glyph glyph-name="Atilde" unicode="&#xc3;" 
d="M819 1740v615h819v-615h-819zM2048 102q-127 0 -218 90q-90 90 -90 217v2867q0 43 -30 72q-30 31 -72 31h-819q-43 0 -72 -31q-31 -29 -31 -72v-2457q0 -72 -14 -142q-14 -68 -40 -133q-49 -117 -166 -166q-59 -24 -118 -24t-118 24q-117 48 -166 166q-24 59 -24 118
t24 117q8 19 8 40v2457q0 297 210 507t507 210h819q296 0 507 -210q210 -210 210 -507v-2867q0 -120 -106 -217q-99 -90 -201 -90zM662 4166q-59 0 -118 24q-118 49 -166 166q-24 59 -24 118t24 118q49 117 166 166q65 26 133 40q70 14 142 14h819q20 0 39 8q59 25 118 25
q58 0 117 -25q118 -49 167 -166q24 -59 24 -118t-24 -118q-50 -117 -167 -166q-64 -26 -132 -40q-70 -14 -142 -14h-819q-21 0 -40 -8q-58 -24 -117 -24z" />
    <glyph glyph-name="Adieresis" unicode="&#xc4;" 
d="M819 1740v615h819v-615h-819zM2048 102q-127 0 -218 90q-90 90 -90 217v2867q0 43 -30 72q-30 31 -72 31h-819q-43 0 -72 -31q-31 -29 -31 -72v-2457q0 -72 -14 -142q-14 -68 -40 -133q-49 -117 -166 -166q-59 -24 -118 -24t-118 24q-117 48 -166 166q-24 59 -24 118
t24 117q8 19 8 40v2457q0 297 210 507t507 210h819q296 0 507 -210q210 -210 210 -507v-2867q0 -120 -106 -217q-99 -90 -201 -90zM819 4198q-127 0 -217 90t-90 217t90 217t217 90t217 -90t90 -217t-90 -217t-217 -90zM1638 4198q-127 0 -217 90t-90 217t90 217t217 90
t217 -90t90 -217t-90 -217t-217 -90z" />
    <glyph glyph-name="Aring" unicode="&#xc5;" 
d="M819 1740v615h819v-615h-819zM2048 102q-127 0 -218 90q-90 90 -90 217v2874q163 20 305 101q138 80 238 206q35 -72 53 -150q19 -80 19 -164v-2867q0 -120 -106 -217q-99 -90 -201 -90zM378 354q-59 0 -118 24q-117 48 -166 166q-24 59 -24 118t24 117q8 19 8 40v2457
q0 297 210 507t507 210h819q42 0 72 30t30 73q0 42 -30 72t-72 30h-819q-43 0 -72 -30q-31 -30 -31 -72v-7q-162 -21 -304 -102q-139 -79 -238 -205q-35 72 -53 150q-19 80 -19 164q0 296 210 507q210 209 507 209h819q296 0 507 -209q210 -211 210 -507q0 -297 -210 -508
q-211 -209 -507 -209h-819q-43 0 -72 -31q-31 -29 -31 -72v-2457q0 -72 -14 -142q-14 -68 -40 -133q-49 -117 -166 -166q-59 -24 -118 -24z" />
    <glyph glyph-name="AE" unicode="&#xc6;" horiz-adv-x="4505" 
d="M819 1740v615h819v-615h-819zM2457 1740v615h819q127 0 217 -90q91 -91 91 -217q0 -127 -91 -218q-90 -90 -217 -90h-819zM2457 102q-296 0 -507 210q-210 210 -210 507v2457q0 43 -30 72q-30 31 -72 31h-819q-43 0 -72 -31q-31 -29 -31 -72v-2457q0 -72 -14 -142
q-14 -68 -40 -133q-49 -117 -166 -166q-59 -24 -118 -24t-118 24q-117 48 -166 166q-24 59 -24 118t24 117q8 19 8 40v2457q0 297 210 507t507 210h819q296 0 507 -210q210 -210 210 -507v-2457q0 -43 30 -72q30 -31 72 -31h1229q127 0 217 -90t90 -217q0 -102 -90 -201
q-97 -106 -217 -106h-1229zM2451 3379q-21 162 -102 304q-79 139 -206 238q72 35 150 53q81 19 164 19h819q21 0 40 8q58 24 117 24t118 -24q118 -49 166 -166q24 -59 24 -118t-24 -118q-49 -117 -166 -166q-65 -26 -133 -40q-70 -14 -142 -14h-825z" />
    <glyph glyph-name="Ccedilla" unicode="&#xc7;" 
d="M1631 102q-20 162 -101 305q-80 138 -206 237q72 35 150 53q80 19 164 19h410q126 0 217 -90q90 -90 90 -217q0 -102 -90 -201q-97 -106 -217 -106h-417zM1197 -464q-59 0 -118 24q-117 48 -166 166q-24 59 -24 118t24 117q8 19 8 39q0 42 -30 72t-72 30q-297 0 -507 210
t-210 507v2457q0 297 210 507t507 210h819q20 0 39 8q59 24 118 24q58 0 117 -24q118 -49 167 -166q24 -59 24 -118t-24 -118q-50 -117 -167 -166q-64 -26 -132 -40q-70 -14 -142 -14h-819q-43 0 -72 -31q-31 -29 -31 -72v-2457q0 -43 31 -72q29 -31 72 -31q296 0 507 -209
q210 -211 210 -507q0 -72 -14 -141q-14 -68 -41 -133q-49 -117 -166 -166q-59 -24 -118 -24z" />
    <glyph glyph-name="Egrave" unicode="&#xc8;" 
d="M819 1740v615h819q127 0 217 -90q90 -91 90 -217q0 -127 -90 -218q-90 -90 -217 -90h-819zM819 102q-297 0 -507 210t-210 507v2457q0 297 210 507t507 210h819q20 0 39 8q59 24 118 24q58 0 117 -24q118 -49 167 -166q24 -59 24 -118t-24 -118q-50 -117 -167 -166
q-64 -26 -132 -40q-70 -14 -142 -14h-819q-43 0 -72 -31q-31 -29 -31 -72v-2457q0 -43 31 -72q29 -31 72 -31h1229q126 0 217 -90q90 -90 90 -217q0 -102 -90 -201q-97 -106 -217 -106h-1229zM1385 4166q-59 0 -117 24q-19 8 -40 8q-72 0 -141 14q-68 14 -133 40
q-117 49 -166 166q-24 59 -24 118t24 118q48 117 166 166q59 25 118 25q58 0 117 -25q19 -8 39 -8q72 0 142 -14q68 -14 133 -40q117 -49 166 -166q24 -59 24 -118t-24 -118q-48 -117 -166 -166q-59 -24 -118 -24z" />
    <glyph glyph-name="Eacute" unicode="&#xc9;" 
d="M819 1740v615h819q127 0 217 -90q90 -91 90 -217q0 -127 -90 -218q-90 -90 -217 -90h-819zM819 102q-297 0 -507 210t-210 507v2457q0 297 210 507t507 210h819q20 0 39 8q59 24 118 24q58 0 117 -24q118 -49 167 -166q24 -59 24 -118t-24 -118q-50 -117 -167 -166
q-64 -26 -132 -40q-70 -14 -142 -14h-819q-43 0 -72 -31q-31 -29 -31 -72v-2457q0 -43 31 -72q29 -31 72 -31h1229q126 0 217 -90q90 -90 90 -217q0 -102 -90 -201q-97 -106 -217 -106h-1229zM1072 4166q-59 0 -118 24q-118 49 -166 166q-24 59 -24 118t24 118
q49 117 166 166q65 26 133 40q69 14 141 14q21 0 40 8q58 25 117 25t118 -25q118 -49 166 -166q24 -59 24 -118t-24 -118q-49 -117 -166 -166q-65 -26 -133 -40q-70 -14 -142 -14q-20 0 -39 -8q-59 -24 -117 -24z" />
    <glyph glyph-name="Ecircumflex" unicode="&#xca;" 
d="M819 1740v615h819q127 0 217 -90q90 -91 90 -217q0 -127 -90 -218q-90 -90 -217 -90h-819zM819 102q-297 0 -507 210t-210 507v2457q0 297 210 507t507 210h819q20 0 39 8q59 24 118 24q58 0 117 -24q118 -49 167 -166q24 -59 24 -118t-24 -118q-50 -117 -167 -166
q-64 -26 -132 -40q-70 -14 -142 -14h-819q-43 0 -72 -31q-31 -29 -31 -72v-2457q0 -43 31 -72q29 -31 72 -31h1229q126 0 217 -90q90 -90 90 -217q0 -102 -90 -201q-97 -106 -217 -106h-1229zM1072 4166q-59 0 -118 24q-118 49 -166 166q-24 59 -24 118t24 118
q49 117 166 166q65 26 133 40q69 14 141 14t142 -14q68 -14 133 -40q117 -49 166 -166q24 -59 24 -118t-24 -118q-48 -117 -166 -166q-59 -24 -118 -24t-117 24q-19 8 -40 8q-20 0 -39 -8q-59 -24 -117 -24z" />
    <glyph glyph-name="Edieresis" unicode="&#xcb;" 
d="M819 1740v615h819q127 0 217 -90q90 -91 90 -217q0 -127 -90 -218q-90 -90 -217 -90h-819zM819 102q-297 0 -507 210t-210 507v2457q0 297 210 507t507 210h819q20 0 39 8q59 24 118 24q58 0 117 -24q118 -49 167 -166q24 -59 24 -118t-24 -118q-50 -117 -167 -166
q-64 -26 -132 -40q-70 -14 -142 -14h-819q-43 0 -72 -31q-31 -29 -31 -72v-2457q0 -43 31 -72q29 -31 72 -31h1229q126 0 217 -90q90 -90 90 -217q0 -102 -90 -201q-97 -106 -217 -106h-1229zM819 4198q-127 0 -217 90t-90 217t90 217t217 90t217 -90t90 -217t-90 -217
t-217 -90zM1638 4198q-127 0 -217 90t-90 217t90 217t217 90t217 -90t90 -217t-90 -217t-217 -90z" />
    <glyph glyph-name="Igrave" unicode="&#xcc;" horiz-adv-x="1228" 
d="M433 102q-127 0 -217 90t-90 217v3277q0 120 106 217q99 90 201 90q127 0 217 -90t90 -217v-3277q0 -120 -105 -217q-99 -90 -202 -90zM590 4166q-59 0 -118 24q-18 8 -39 8q-72 0 -142 14q-68 14 -132 40q-117 49 -166 166q-24 59 -24 118t24 118q48 117 166 166
q59 25 117 25q59 0 118 -25q19 -8 39 -8q72 0 142 -14q68 -14 133 -40q117 -49 166 -166q24 -59 24 -118t-24 -118q-49 -117 -166 -166q-59 -24 -118 -24z" />
    <glyph glyph-name="Iacute" unicode="&#xcd;" horiz-adv-x="1228" 
d="M433 102q-127 0 -217 90t-90 217v3277q0 120 106 217q99 90 201 90q127 0 217 -90t90 -217v-3277q0 -120 -105 -217q-99 -90 -202 -90zM276 4166q-58 0 -117 24q-118 49 -166 166q-24 59 -24 118t24 118q49 117 166 166q64 26 132 40q70 14 142 14q21 0 39 8
q59 25 118 25t118 -25q117 -49 166 -166q24 -59 24 -118t-24 -118q-49 -117 -166 -166q-65 -26 -133 -40q-70 -14 -142 -14q-20 0 -39 -8q-59 -24 -118 -24z" />
    <glyph glyph-name="Icircumflex" unicode="&#xce;" horiz-adv-x="1228" 
d="M433 102q-127 0 -217 90t-90 217v3277q0 120 106 217q99 90 201 90q127 0 217 -90t90 -217v-3277q0 -120 -105 -217q-99 -90 -202 -90zM276 4166q-58 0 -117 24q-118 49 -166 166q-24 59 -24 118t24 118q49 117 166 166q64 26 132 40q70 14 142 14t142 -14
q68 -14 133 -40q117 -49 166 -166q24 -59 24 -118t-24 -118q-49 -117 -166 -166q-59 -24 -118 -24t-118 24q-18 8 -39 8q-20 0 -39 -8q-59 -24 -118 -24z" />
    <glyph glyph-name="Idieresis" unicode="&#xcf;" horiz-adv-x="1228" 
d="M409 102q-127 0 -217 90t-90 217v3277q0 120 106 217q99 90 201 90q127 0 217 -90t90 -217v-3277q0 -120 -105 -217q-99 -90 -202 -90zM0 4198q-126 0 -217 90q-90 90 -90 217t90 217q91 90 217 90t217 -90q90 -90 90 -217t-90 -217q-91 -90 -217 -90zM819 4198
q-127 0 -217 90t-90 217t90 217t217 90t217 -90t90 -217t-90 -217t-217 -90z" />
    <glyph glyph-name="Eth" unicode="&#xd0;" 
d="M378 354q-59 0 -118 24q-117 48 -166 166q-24 59 -24 118t24 117q8 19 8 40v1242q94 -171 255 -281q163 -111 359 -136v-825q0 -72 -14 -142q-14 -68 -40 -133q-49 -117 -166 -166q-59 -24 -118 -24zM1228 102q-127 0 -217 90t-90 217q0 103 90 202q97 105 217 105h410
q42 0 72 31q30 29 30 72v2457q0 43 -30 72q-30 31 -72 31h-819q-43 0 -72 -31q-31 -29 -31 -72v-819q0 -42 31 -72q29 -30 72 -30h409q121 0 217 -106q91 -99 91 -201q0 -127 -91 -218q-90 -90 -217 -90h-409q-297 0 -507 210q-210 211 -210 507v819q0 297 210 507t507 210
h819q296 0 507 -210q210 -210 210 -507v-2457q0 -297 -210 -507q-211 -210 -507 -210h-410z" />
    <glyph glyph-name="Ntilde" unicode="&#xd1;" 
d="M409 102q-127 0 -217 90t-90 217v2867q0 297 210 507t507 210h819q296 0 507 -210q210 -210 210 -507v-2867q0 -120 -106 -217q-99 -90 -201 -90q-127 0 -218 90q-90 90 -90 217v2867q0 43 -30 72q-30 31 -72 31h-819q-43 0 -72 -31q-31 -29 -31 -72v-2867
q0 -120 -105 -217q-99 -90 -202 -90zM662 4166q-59 0 -118 24q-118 49 -166 166q-24 59 -24 118t24 118q49 117 166 166q65 26 133 40q70 14 142 14h819q20 0 39 8q59 25 118 25q58 0 117 -25q118 -49 167 -166q24 -59 24 -118t-24 -118q-50 -117 -167 -166
q-64 -26 -132 -40q-70 -14 -142 -14h-819q-21 0 -40 -8q-58 -24 -117 -24z" />
    <glyph glyph-name="Ograve" unicode="&#xd2;" 
d="M819 102q-297 0 -507 210t-210 507v2457q0 72 14 142q14 68 40 133q49 117 166 166q59 24 118 24t118 -24q117 -48 166 -166q25 -59 25 -118t-25 -117q-8 -19 -8 -40v-2457q0 -43 31 -72q29 -31 72 -31h819q42 0 72 31q30 29 30 72v2457q0 43 -30 72q-30 31 -72 31h-410
q-127 0 -217 90t-90 217q0 102 90 201q97 106 217 106h410q296 0 507 -210q210 -210 210 -507v-2457q0 -297 -210 -507q-211 -210 -507 -210h-819zM1385 4166q-59 0 -117 24q-19 8 -40 8q-72 0 -141 14q-68 14 -133 40q-117 49 -166 166q-24 59 -24 118t24 118
q48 117 166 166q59 25 118 25q58 0 117 -25q19 -8 39 -8q72 0 142 -14q68 -14 133 -40q117 -49 166 -166q24 -59 24 -118t-24 -118q-48 -117 -166 -166q-59 -24 -118 -24z" />
    <glyph glyph-name="Oacute" unicode="&#xd3;" 
d="M819 102q-297 0 -507 210t-210 507v2457q0 72 14 142q14 68 40 133q49 117 166 166q59 24 118 24t118 -24q117 -48 166 -166q25 -59 25 -118t-25 -117q-8 -19 -8 -40v-2457q0 -43 31 -72q29 -31 72 -31h819q42 0 72 31q30 29 30 72v2457q0 43 -30 72q-30 31 -72 31h-410
q-127 0 -217 90t-90 217q0 102 90 201q97 106 217 106h410q296 0 507 -210q210 -210 210 -507v-2457q0 -297 -210 -507q-211 -210 -507 -210h-819zM1072 4166q-59 0 -118 24q-118 49 -166 166q-24 59 -24 118t24 118q49 117 166 166q65 26 133 40q69 14 141 14q21 0 40 8
q58 25 117 25t118 -25q118 -49 166 -166q24 -59 24 -118t-24 -118q-49 -117 -166 -166q-65 -26 -133 -40q-70 -14 -142 -14q-20 0 -39 -8q-59 -24 -117 -24z" />
    <glyph glyph-name="Ocircumflex" unicode="&#xd4;" 
d="M819 102q-297 0 -507 210t-210 507v2457q0 72 14 142q14 68 40 133q49 117 166 166q59 24 118 24t118 -24q117 -48 166 -166q25 -59 25 -118t-25 -117q-8 -19 -8 -40v-2457q0 -43 31 -72q29 -31 72 -31h819q42 0 72 31q30 29 30 72v2457q0 43 -30 72q-30 31 -72 31h-410
q-127 0 -217 90t-90 217q0 102 90 201q97 106 217 106h410q296 0 507 -210q210 -210 210 -507v-2457q0 -297 -210 -507q-211 -210 -507 -210h-819zM1072 4166q-59 0 -118 24q-118 49 -166 166q-24 59 -24 118t24 118q49 117 166 166q65 26 133 40q69 14 141 14t142 -14
q68 -14 133 -40q117 -49 166 -166q24 -59 24 -118t-24 -118q-48 -117 -166 -166q-59 -24 -118 -24t-117 24q-19 8 -40 8q-20 0 -39 -8q-59 -24 -117 -24z" />
    <glyph glyph-name="Otilde" unicode="&#xd5;" 
d="M819 102q-297 0 -507 210t-210 507v2457q0 72 14 142q14 68 40 133q49 117 166 166q59 24 118 24t118 -24q117 -48 166 -166q25 -59 25 -118t-25 -117q-8 -19 -8 -40v-2457q0 -43 31 -72q29 -31 72 -31h819q42 0 72 31q30 29 30 72v2457q0 43 -30 72q-30 31 -72 31h-410
q-127 0 -217 90t-90 217q0 102 90 201q97 106 217 106h410q296 0 507 -210q210 -210 210 -507v-2457q0 -297 -210 -507q-211 -210 -507 -210h-819zM662 4166q-59 0 -118 24q-118 49 -166 166q-24 59 -24 118t24 118q49 117 166 166q65 26 133 40q70 14 142 14h819q20 0 39 8
q59 25 118 25q58 0 117 -25q118 -49 167 -166q24 -59 24 -118t-24 -118q-50 -117 -167 -166q-64 -26 -132 -40q-70 -14 -142 -14h-819q-21 0 -40 -8q-58 -24 -117 -24z" />
    <glyph glyph-name="Odieresis" unicode="&#xd6;" 
d="M819 102q-297 0 -507 210t-210 507v2457q0 72 14 142q14 68 40 133q49 117 166 166q59 24 118 24t118 -24q117 -48 166 -166q25 -59 25 -118t-25 -117q-8 -19 -8 -40v-2457q0 -43 31 -72q29 -31 72 -31h819q42 0 72 31q30 29 30 72v2457q0 43 -30 72q-30 31 -72 31h-410
q-127 0 -217 90t-90 217q0 102 90 201q97 106 217 106h410q296 0 507 -210q210 -210 210 -507v-2457q0 -297 -210 -507q-211 -210 -507 -210h-819zM819 4198q-127 0 -217 90t-90 217t90 217t217 90t217 -90t90 -217t-90 -217t-217 -90zM1638 4198q-127 0 -217 90t-90 217
t90 217t217 90t217 -90t90 -217t-90 -217t-217 -90z" />
    <glyph glyph-name="multiply" unicode="&#xd7;" 
d="M2048 921q-127 0 -218 90q-90 90 -90 217v416q163 21 305 102q138 79 238 206q35 -72 53 -150q19 -81 19 -164v-410q0 -120 -106 -217q-99 -90 -201 -90zM174 2143q-35 72 -53 150q-19 81 -19 164v410q0 120 106 217q99 90 201 90q127 0 217 -90t90 -217v-416
q-162 -21 -304 -102q-139 -79 -238 -206zM409 921q-127 0 -217 90t-90 217v410q0 296 210 507q210 210 507 210h819q42 0 72 30t30 72v410q0 120 106 217q99 90 202 90q126 0 217 -90q90 -90 90 -217v-410q0 -296 -210 -507q-211 -210 -507 -210h-819q-43 0 -72 -30
q-31 -30 -31 -72v-410q0 -120 -105 -217q-99 -90 -202 -90z" />
    <glyph glyph-name="Oslash" unicode="&#xd8;" 
d="M174 2143q-35 72 -53 150q-19 81 -19 164v819q0 72 14 142q14 68 40 133q49 117 166 166q59 24 118 24t118 -24q117 -48 166 -166q25 -59 25 -118t-25 -117q-8 -19 -8 -40v-825q-162 -21 -304 -102q-139 -79 -238 -206zM819 102q-297 0 -507 210t-210 507v819
q0 296 210 507q210 210 507 210h819q42 0 72 30t30 72v819q0 43 -30 72q-30 31 -72 31h-410q-127 0 -217 90t-90 217q0 102 90 201q97 106 217 106h410q296 0 507 -210q210 -210 210 -507v-819q0 -296 -210 -507q-211 -210 -507 -210h-819q-43 0 -72 -30q-31 -30 -31 -72
v-819q0 -43 31 -72q29 -31 72 -31h819q42 0 72 31q30 29 30 72v825q163 21 305 102q138 79 238 206q35 -72 53 -150q19 -81 19 -164v-819q0 -297 -210 -507q-211 -210 -507 -210h-819z" />
    <glyph glyph-name="Ugrave" unicode="&#xd9;" 
d="M819 102q-297 0 -507 210t-210 507v2867q0 120 106 217q99 90 201 90q127 0 217 -90t90 -217v-2867q0 -43 31 -72q29 -31 72 -31h819q42 0 72 31q30 29 30 72v2867q0 120 106 217q99 90 202 90q126 0 217 -90q90 -90 90 -217v-2867q0 -297 -210 -507q-211 -210 -507 -210
h-819zM1385 4166q-59 0 -117 24q-19 8 -40 8q-72 0 -141 14q-68 14 -133 40q-117 49 -166 166q-24 59 -24 118t24 118q48 117 166 166q59 25 118 25q58 0 117 -25q19 -8 39 -8q72 0 142 -14q68 -14 133 -40q117 -49 166 -166q24 -59 24 -118t-24 -118q-48 -117 -166 -166
q-59 -24 -118 -24z" />
    <glyph glyph-name="Uacute" unicode="&#xda;" 
d="M819 102q-297 0 -507 210t-210 507v2867q0 120 106 217q99 90 201 90q127 0 217 -90t90 -217v-2867q0 -43 31 -72q29 -31 72 -31h819q42 0 72 31q30 29 30 72v2867q0 120 106 217q99 90 202 90q126 0 217 -90q90 -90 90 -217v-2867q0 -297 -210 -507q-211 -210 -507 -210
h-819zM1072 4166q-59 0 -118 24q-118 49 -166 166q-24 59 -24 118t24 118q49 117 166 166q65 26 133 40q69 14 141 14q21 0 40 8q58 25 117 25t118 -25q118 -49 166 -166q24 -59 24 -118t-24 -118q-49 -117 -166 -166q-65 -26 -133 -40q-70 -14 -142 -14q-20 0 -39 -8
q-59 -24 -117 -24z" />
    <glyph glyph-name="Ucircumflex" unicode="&#xdb;" 
d="M819 102q-297 0 -507 210t-210 507v2867q0 120 106 217q99 90 201 90q127 0 217 -90t90 -217v-2867q0 -43 31 -72q29 -31 72 -31h819q42 0 72 31q30 29 30 72v2867q0 120 106 217q99 90 202 90q126 0 217 -90q90 -90 90 -217v-2867q0 -297 -210 -507q-211 -210 -507 -210
h-819zM1072 4166q-59 0 -118 24q-118 49 -166 166q-24 59 -24 118t24 118q49 117 166 166q65 26 133 40q69 14 141 14t142 -14q68 -14 133 -40q117 -49 166 -166q24 -59 24 -118t-24 -118q-48 -117 -166 -166q-59 -24 -118 -24t-117 24q-19 8 -40 8q-20 0 -39 -8
q-59 -24 -117 -24z" />
    <glyph glyph-name="Udieresis" unicode="&#xdc;" 
d="M819 102q-297 0 -507 210t-210 507v2867q0 120 106 217q99 90 201 90q127 0 217 -90t90 -217v-2867q0 -43 31 -72q29 -31 72 -31h819q42 0 72 31q30 29 30 72v2867q0 120 106 217q99 90 202 90q126 0 217 -90q90 -90 90 -217v-2867q0 -297 -210 -507q-211 -210 -507 -210
h-819zM819 4198q-127 0 -217 90t-90 217t90 217t217 90t217 -90t90 -217t-90 -217t-217 -90zM1638 4198q-127 0 -217 90t-90 217t90 217t217 90t217 -90t90 -217t-90 -217t-217 -90z" />
    <glyph glyph-name="Yacute" unicode="&#xdd;" 
d="M1228 102q-127 0 -217 90t-90 217v1229q0 42 -30 72t-72 30q-297 0 -507 210q-210 211 -210 507v1229q0 120 106 217q99 90 201 90q127 0 217 -90t90 -217v-1229q0 -42 31 -72q29 -30 72 -30q296 0 507 -210q210 -211 210 -507v-1229q0 -120 -106 -217q-99 -90 -202 -90z
M1631 1740q-20 163 -101 305q-80 138 -206 238q72 35 150 53q80 19 164 19q42 0 72 30t30 72v1229q0 120 106 217q99 90 202 90q126 0 217 -90q90 -90 90 -217v-1229q0 -296 -210 -507q-211 -210 -507 -210h-7zM1072 4166q-59 0 -118 24q-118 49 -166 166q-24 59 -24 118
t24 118q49 117 166 166q65 26 133 40q69 14 141 14q21 0 40 8q58 25 117 25t118 -25q118 -49 166 -166q24 -59 24 -118t-24 -118q-49 -117 -166 -166q-65 -26 -133 -40q-70 -14 -142 -14q-20 0 -39 -8q-59 -24 -117 -24z" />
    <glyph glyph-name="Thorn" unicode="&#xde;" 
d="M819 921v615h819q42 0 72 30q30 29 30 72v819q0 43 -30 72q-30 31 -72 31h-819v614h819q296 0 507 -210q210 -210 210 -507v-819q0 -297 -210 -507q-211 -210 -507 -210h-819zM409 102q-127 0 -217 90t-90 217v3277q0 120 106 217q99 90 201 90q127 0 217 -90t90 -217
v-3277q0 -120 -105 -217q-99 -90 -202 -90z" />
    <glyph glyph-name="germandbls" unicode="&#xdf;" 
d="M1481 70q-59 0 -118 24q-117 49 -166 166q-24 59 -24 118t24 118q49 117 166 166q65 26 133 40q70 14 142 14q42 0 72 31q30 29 30 72v819q0 42 -30 72t-72 30h-410q-127 0 -217 90q-90 91 -90 218q0 102 90 201q97 106 217 106h410q42 0 72 30t30 72v819q0 43 -30 72
q-30 31 -72 31h-819q-43 0 -72 -31q-31 -29 -31 -72v-2867q0 -120 -105 -217q-99 -90 -202 -90q-127 0 -217 90t-90 217v2867q0 297 210 507t507 210h819q296 0 507 -210q210 -210 210 -507v-819q0 -112 -34 -219q-33 -102 -95 -190q62 -89 95 -191q34 -107 34 -219v-819
q0 -297 -210 -507q-211 -210 -507 -210q-21 0 -39 -8q-59 -24 -118 -24z" />
    <glyph glyph-name="agrave" unicode="&#xe0;" 
d="M819 1740v615h819v-615h-819zM2048 102q-127 0 -218 90q-90 90 -90 217v2867q0 43 -30 72q-30 31 -72 31h-819q-43 0 -72 -31q-31 -29 -31 -72v-2457q0 -72 -14 -142q-14 -68 -40 -133q-49 -117 -166 -166q-59 -24 -118 -24t-118 24q-117 48 -166 166q-24 59 -24 118
t24 117q8 19 8 40v2457q0 297 210 507t507 210h819q296 0 507 -210q210 -210 210 -507v-2867q0 -120 -106 -217q-99 -90 -201 -90zM1385 4166q-59 0 -117 24q-19 8 -40 8q-72 0 -141 14q-68 14 -133 40q-117 49 -166 166q-24 59 -24 118t24 118q48 117 166 166q59 25 118 25
q58 0 117 -25q19 -8 39 -8q72 0 142 -14q68 -14 133 -40q117 -49 166 -166q24 -59 24 -118t-24 -118q-48 -117 -166 -166q-59 -24 -118 -24z" />
    <glyph glyph-name="aacute" unicode="&#xe1;" 
d="M819 1740v615h819v-615h-819zM2048 102q-127 0 -218 90q-90 90 -90 217v2867q0 43 -30 72q-30 31 -72 31h-819q-43 0 -72 -31q-31 -29 -31 -72v-2457q0 -72 -14 -142q-14 -68 -40 -133q-49 -117 -166 -166q-59 -24 -118 -24t-118 24q-117 48 -166 166q-24 59 -24 118
t24 117q8 19 8 40v2457q0 297 210 507t507 210h819q296 0 507 -210q210 -210 210 -507v-2867q0 -120 -106 -217q-99 -90 -201 -90zM1072 4166q-59 0 -118 24q-118 49 -166 166q-24 59 -24 118t24 118q49 117 166 166q65 26 133 40q69 14 141 14q21 0 40 8q58 25 117 25
t118 -25q118 -49 166 -166q24 -59 24 -118t-24 -118q-49 -117 -166 -166q-65 -26 -133 -40q-70 -14 -142 -14q-20 0 -39 -8q-59 -24 -117 -24z" />
    <glyph glyph-name="acircumflex" unicode="&#xe2;" 
d="M819 1740v615h819v-615h-819zM2048 102q-127 0 -218 90q-90 90 -90 217v2867q0 43 -30 72q-30 31 -72 31h-819q-43 0 -72 -31q-31 -29 -31 -72v-2457q0 -72 -14 -142q-14 -68 -40 -133q-49 -117 -166 -166q-59 -24 -118 -24t-118 24q-117 48 -166 166q-24 59 -24 118
t24 117q8 19 8 40v2457q0 297 210 507t507 210h819q296 0 507 -210q210 -210 210 -507v-2867q0 -120 -106 -217q-99 -90 -201 -90zM1072 4166q-59 0 -118 24q-118 49 -166 166q-24 59 -24 118t24 118q49 117 166 166q65 26 133 40q69 14 141 14t142 -14q68 -14 133 -40
q117 -49 166 -166q24 -59 24 -118t-24 -118q-48 -117 -166 -166q-59 -24 -118 -24t-117 24q-19 8 -40 8q-20 0 -39 -8q-59 -24 -117 -24z" />
    <glyph glyph-name="atilde" unicode="&#xe3;" 
d="M819 1740v615h819v-615h-819zM2048 102q-127 0 -218 90q-90 90 -90 217v2867q0 43 -30 72q-30 31 -72 31h-819q-43 0 -72 -31q-31 -29 -31 -72v-2457q0 -72 -14 -142q-14 -68 -40 -133q-49 -117 -166 -166q-59 -24 -118 -24t-118 24q-117 48 -166 166q-24 59 -24 118
t24 117q8 19 8 40v2457q0 297 210 507t507 210h819q296 0 507 -210q210 -210 210 -507v-2867q0 -120 -106 -217q-99 -90 -201 -90zM662 4166q-59 0 -118 24q-118 49 -166 166q-24 59 -24 118t24 118q49 117 166 166q65 26 133 40q70 14 142 14h819q20 0 39 8q59 25 118 25
q58 0 117 -25q118 -49 167 -166q24 -59 24 -118t-24 -118q-50 -117 -167 -166q-64 -26 -132 -40q-70 -14 -142 -14h-819q-21 0 -40 -8q-58 -24 -117 -24z" />
    <glyph glyph-name="adieresis" unicode="&#xe4;" 
d="M819 1740v615h819v-615h-819zM2048 102q-127 0 -218 90q-90 90 -90 217v2867q0 43 -30 72q-30 31 -72 31h-819q-43 0 -72 -31q-31 -29 -31 -72v-2457q0 -72 -14 -142q-14 -68 -40 -133q-49 -117 -166 -166q-59 -24 -118 -24t-118 24q-117 48 -166 166q-24 59 -24 118
t24 117q8 19 8 40v2457q0 297 210 507t507 210h819q296 0 507 -210q210 -210 210 -507v-2867q0 -120 -106 -217q-99 -90 -201 -90zM819 4198q-127 0 -217 90t-90 217t90 217t217 90t217 -90t90 -217t-90 -217t-217 -90zM1638 4198q-127 0 -217 90t-90 217t90 217t217 90
t217 -90t90 -217t-90 -217t-217 -90z" />
    <glyph glyph-name="aring" unicode="&#xe5;" 
d="M819 1740v615h819v-615h-819zM2048 102q-127 0 -218 90q-90 90 -90 217v2874q163 20 305 101q138 80 238 206q35 -72 53 -150q19 -80 19 -164v-2867q0 -120 -106 -217q-99 -90 -201 -90zM378 354q-59 0 -118 24q-117 48 -166 166q-24 59 -24 118t24 117q8 19 8 40v2457
q0 297 210 507t507 210h819q42 0 72 30t30 73q0 42 -30 72t-72 30h-819q-43 0 -72 -30q-31 -30 -31 -72v-7q-162 -21 -304 -102q-139 -79 -238 -205q-35 72 -53 150q-19 80 -19 164q0 296 210 507q210 209 507 209h819q296 0 507 -209q210 -211 210 -507q0 -297 -210 -508
q-211 -209 -507 -209h-819q-43 0 -72 -31q-31 -29 -31 -72v-2457q0 -72 -14 -142q-14 -68 -40 -133q-49 -117 -166 -166q-59 -24 -118 -24z" />
    <glyph glyph-name="ae" unicode="&#xe6;" horiz-adv-x="4505" 
d="M819 1740v615h819v-615h-819zM2457 1740v615h819q127 0 217 -90q91 -91 91 -217q0 -127 -91 -218q-90 -90 -217 -90h-819zM2457 102q-296 0 -507 210q-210 210 -210 507v2457q0 43 -30 72q-30 31 -72 31h-819q-43 0 -72 -31q-31 -29 -31 -72v-2457q0 -72 -14 -142
q-14 -68 -40 -133q-49 -117 -166 -166q-59 -24 -118 -24t-118 24q-117 48 -166 166q-24 59 -24 118t24 117q8 19 8 40v2457q0 297 210 507t507 210h819q296 0 507 -210q210 -210 210 -507v-2457q0 -43 30 -72q30 -31 72 -31h1229q127 0 217 -90t90 -217q0 -102 -90 -201
q-97 -106 -217 -106h-1229zM2451 3379q-21 162 -102 304q-79 139 -206 238q72 35 150 53q81 19 164 19h819q21 0 40 8q58 24 117 24t118 -24q118 -49 166 -166q24 -59 24 -118t-24 -118q-49 -117 -166 -166q-65 -26 -133 -40q-70 -14 -142 -14h-825z" />
    <glyph glyph-name="ccedilla" unicode="&#xe7;" 
d="M1631 102q-20 162 -101 305q-80 138 -206 237q72 35 150 53q80 19 164 19h410q126 0 217 -90q90 -90 90 -217q0 -102 -90 -201q-97 -106 -217 -106h-417zM1197 -464q-59 0 -118 24q-117 48 -166 166q-24 59 -24 118t24 117q8 19 8 39q0 42 -30 72t-72 30q-297 0 -507 210
t-210 507v2457q0 297 210 507t507 210h819q20 0 39 8q59 24 118 24q58 0 117 -24q118 -49 167 -166q24 -59 24 -118t-24 -118q-50 -117 -167 -166q-64 -26 -132 -40q-70 -14 -142 -14h-819q-43 0 -72 -31q-31 -29 -31 -72v-2457q0 -43 31 -72q29 -31 72 -31q296 0 507 -209
q210 -211 210 -507q0 -72 -14 -141q-14 -68 -41 -133q-49 -117 -166 -166q-59 -24 -118 -24z" />
    <glyph glyph-name="egrave" unicode="&#xe8;" 
d="M819 1740v615h819q127 0 217 -90q90 -91 90 -217q0 -127 -90 -218q-90 -90 -217 -90h-819zM819 102q-297 0 -507 210t-210 507v2457q0 297 210 507t507 210h819q20 0 39 8q59 24 118 24q58 0 117 -24q118 -49 167 -166q24 -59 24 -118t-24 -118q-50 -117 -167 -166
q-64 -26 -132 -40q-70 -14 -142 -14h-819q-43 0 -72 -31q-31 -29 -31 -72v-2457q0 -43 31 -72q29 -31 72 -31h1229q126 0 217 -90q90 -90 90 -217q0 -102 -90 -201q-97 -106 -217 -106h-1229zM1385 4166q-59 0 -117 24q-19 8 -40 8q-72 0 -141 14q-68 14 -133 40
q-117 49 -166 166q-24 59 -24 118t24 118q48 117 166 166q59 25 118 25q58 0 117 -25q19 -8 39 -8q72 0 142 -14q68 -14 133 -40q117 -49 166 -166q24 -59 24 -118t-24 -118q-48 -117 -166 -166q-59 -24 -118 -24z" />
    <glyph glyph-name="eacute" unicode="&#xe9;" 
d="M819 1740v615h819q127 0 217 -90q90 -91 90 -217q0 -127 -90 -218q-90 -90 -217 -90h-819zM819 102q-297 0 -507 210t-210 507v2457q0 297 210 507t507 210h819q20 0 39 8q59 24 118 24q58 0 117 -24q118 -49 167 -166q24 -59 24 -118t-24 -118q-50 -117 -167 -166
q-64 -26 -132 -40q-70 -14 -142 -14h-819q-43 0 -72 -31q-31 -29 -31 -72v-2457q0 -43 31 -72q29 -31 72 -31h1229q126 0 217 -90q90 -90 90 -217q0 -102 -90 -201q-97 -106 -217 -106h-1229zM1072 4166q-59 0 -118 24q-118 49 -166 166q-24 59 -24 118t24 118
q49 117 166 166q65 26 133 40q69 14 141 14q21 0 40 8q58 25 117 25t118 -25q118 -49 166 -166q24 -59 24 -118t-24 -118q-49 -117 -166 -166q-65 -26 -133 -40q-70 -14 -142 -14q-20 0 -39 -8q-59 -24 -117 -24z" />
    <glyph glyph-name="ecircumflex" unicode="&#xea;" 
d="M819 1740v615h819q127 0 217 -90q90 -91 90 -217q0 -127 -90 -218q-90 -90 -217 -90h-819zM819 102q-297 0 -507 210t-210 507v2457q0 297 210 507t507 210h819q20 0 39 8q59 24 118 24q58 0 117 -24q118 -49 167 -166q24 -59 24 -118t-24 -118q-50 -117 -167 -166
q-64 -26 -132 -40q-70 -14 -142 -14h-819q-43 0 -72 -31q-31 -29 -31 -72v-2457q0 -43 31 -72q29 -31 72 -31h1229q126 0 217 -90q90 -90 90 -217q0 -102 -90 -201q-97 -106 -217 -106h-1229zM1072 4166q-59 0 -118 24q-118 49 -166 166q-24 59 -24 118t24 118
q49 117 166 166q65 26 133 40q69 14 141 14t142 -14q68 -14 133 -40q117 -49 166 -166q24 -59 24 -118t-24 -118q-48 -117 -166 -166q-59 -24 -118 -24t-117 24q-19 8 -40 8q-20 0 -39 -8q-59 -24 -117 -24z" />
    <glyph glyph-name="edieresis" unicode="&#xeb;" 
d="M819 1740v615h819q127 0 217 -90q90 -91 90 -217q0 -127 -90 -218q-90 -90 -217 -90h-819zM819 102q-297 0 -507 210t-210 507v2457q0 297 210 507t507 210h819q20 0 39 8q59 24 118 24q58 0 117 -24q118 -49 167 -166q24 -59 24 -118t-24 -118q-50 -117 -167 -166
q-64 -26 -132 -40q-70 -14 -142 -14h-819q-43 0 -72 -31q-31 -29 -31 -72v-2457q0 -43 31 -72q29 -31 72 -31h1229q126 0 217 -90q90 -90 90 -217q0 -102 -90 -201q-97 -106 -217 -106h-1229zM819 4198q-127 0 -217 90t-90 217t90 217t217 90t217 -90t90 -217t-90 -217
t-217 -90zM1638 4198q-127 0 -217 90t-90 217t90 217t217 90t217 -90t90 -217t-90 -217t-217 -90z" />
    <glyph glyph-name="igrave" unicode="&#xec;" horiz-adv-x="1228" 
d="M433 102q-127 0 -217 90t-90 217v3277q0 120 106 217q99 90 201 90q127 0 217 -90t90 -217v-3277q0 -120 -105 -217q-99 -90 -202 -90zM590 4166q-59 0 -118 24q-18 8 -39 8q-72 0 -142 14q-68 14 -132 40q-117 49 -166 166q-24 59 -24 118t24 118q48 117 166 166
q59 25 117 25q59 0 118 -25q19 -8 39 -8q72 0 142 -14q68 -14 133 -40q117 -49 166 -166q24 -59 24 -118t-24 -118q-49 -117 -166 -166q-59 -24 -118 -24z" />
    <glyph glyph-name="iacute" unicode="&#xed;" horiz-adv-x="1228" 
d="M433 102q-127 0 -217 90t-90 217v3277q0 120 106 217q99 90 201 90q127 0 217 -90t90 -217v-3277q0 -120 -105 -217q-99 -90 -202 -90zM276 4166q-58 0 -117 24q-118 49 -166 166q-24 59 -24 118t24 118q49 117 166 166q64 26 132 40q70 14 142 14q21 0 39 8
q59 25 118 25t118 -25q117 -49 166 -166q24 -59 24 -118t-24 -118q-49 -117 -166 -166q-65 -26 -133 -40q-70 -14 -142 -14q-20 0 -39 -8q-59 -24 -118 -24z" />
    <glyph glyph-name="icircumflex" unicode="&#xee;" horiz-adv-x="1228" 
d="M433 102q-127 0 -217 90t-90 217v3277q0 120 106 217q99 90 201 90q127 0 217 -90t90 -217v-3277q0 -120 -105 -217q-99 -90 -202 -90zM276 4166q-58 0 -117 24q-118 49 -166 166q-24 59 -24 118t24 118q49 117 166 166q64 26 132 40q70 14 142 14t142 -14
q68 -14 133 -40q117 -49 166 -166q24 -59 24 -118t-24 -118q-49 -117 -166 -166q-59 -24 -118 -24t-118 24q-18 8 -39 8q-20 0 -39 -8q-59 -24 -118 -24z" />
    <glyph glyph-name="idieresis" unicode="&#xef;" horiz-adv-x="1228" 
d="M409 102q-127 0 -217 90t-90 217v3277q0 120 106 217q99 90 201 90q127 0 217 -90t90 -217v-3277q0 -120 -105 -217q-99 -90 -202 -90zM0 4198q-126 0 -217 90q-90 90 -90 217t90 217q91 90 217 90t217 -90q90 -90 90 -217t-90 -217q-91 -90 -217 -90zM819 4198
q-127 0 -217 90t-90 217t90 217t217 90t217 -90t90 -217t-90 -217t-217 -90z" />
    <glyph glyph-name="eth" unicode="&#xf0;" 
d="M378 354q-59 0 -118 24q-117 48 -166 166q-24 59 -24 118t24 117q8 19 8 40v1242q94 -171 255 -281q163 -111 359 -136v-825q0 -72 -14 -142q-14 -68 -40 -133q-49 -117 -166 -166q-59 -24 -118 -24zM1228 102q-127 0 -217 90t-90 217q0 103 90 202q97 105 217 105h410
q42 0 72 31q30 29 30 72v2457q0 43 -30 72q-30 31 -72 31h-819q-43 0 -72 -31q-31 -29 -31 -72v-819q0 -42 31 -72q29 -30 72 -30h409q121 0 217 -106q91 -99 91 -201q0 -127 -91 -218q-90 -90 -217 -90h-409q-297 0 -507 210q-210 211 -210 507v819q0 297 210 507t507 210
h819q296 0 507 -210q210 -210 210 -507v-2457q0 -297 -210 -507q-211 -210 -507 -210h-410z" />
    <glyph glyph-name="ntilde" unicode="&#xf1;" 
d="M409 102q-127 0 -217 90t-90 217v2867q0 297 210 507t507 210h819q296 0 507 -210q210 -210 210 -507v-2867q0 -120 -106 -217q-99 -90 -201 -90q-127 0 -218 90q-90 90 -90 217v2867q0 43 -30 72q-30 31 -72 31h-819q-43 0 -72 -31q-31 -29 -31 -72v-2867
q0 -120 -105 -217q-99 -90 -202 -90zM662 4166q-59 0 -118 24q-118 49 -166 166q-24 59 -24 118t24 118q49 117 166 166q65 26 133 40q70 14 142 14h819q20 0 39 8q59 25 118 25q58 0 117 -25q118 -49 167 -166q24 -59 24 -118t-24 -118q-50 -117 -167 -166
q-64 -26 -132 -40q-70 -14 -142 -14h-819q-21 0 -40 -8q-58 -24 -117 -24z" />
    <glyph glyph-name="ograve" unicode="&#xf2;" 
d="M819 102q-297 0 -507 210t-210 507v2457q0 72 14 142q14 68 40 133q49 117 166 166q59 24 118 24t118 -24q117 -48 166 -166q25 -59 25 -118t-25 -117q-8 -19 -8 -40v-2457q0 -43 31 -72q29 -31 72 -31h819q42 0 72 31q30 29 30 72v2457q0 43 -30 72q-30 31 -72 31h-410
q-127 0 -217 90t-90 217q0 102 90 201q97 106 217 106h410q296 0 507 -210q210 -210 210 -507v-2457q0 -297 -210 -507q-211 -210 -507 -210h-819zM1385 4166q-59 0 -117 24q-19 8 -40 8q-72 0 -141 14q-68 14 -133 40q-117 49 -166 166q-24 59 -24 118t24 118
q48 117 166 166q59 25 118 25q58 0 117 -25q19 -8 39 -8q72 0 142 -14q68 -14 133 -40q117 -49 166 -166q24 -59 24 -118t-24 -118q-48 -117 -166 -166q-59 -24 -118 -24z" />
    <glyph glyph-name="oacute" unicode="&#xf3;" 
d="M819 102q-297 0 -507 210t-210 507v2457q0 72 14 142q14 68 40 133q49 117 166 166q59 24 118 24t118 -24q117 -48 166 -166q25 -59 25 -118t-25 -117q-8 -19 -8 -40v-2457q0 -43 31 -72q29 -31 72 -31h819q42 0 72 31q30 29 30 72v2457q0 43 -30 72q-30 31 -72 31h-410
q-127 0 -217 90t-90 217q0 102 90 201q97 106 217 106h410q296 0 507 -210q210 -210 210 -507v-2457q0 -297 -210 -507q-211 -210 -507 -210h-819zM1072 4166q-59 0 -118 24q-118 49 -166 166q-24 59 -24 118t24 118q49 117 166 166q65 26 133 40q69 14 141 14q21 0 40 8
q58 25 117 25t118 -25q118 -49 166 -166q24 -59 24 -118t-24 -118q-49 -117 -166 -166q-65 -26 -133 -40q-70 -14 -142 -14q-20 0 -39 -8q-59 -24 -117 -24z" />
    <glyph glyph-name="ocircumflex" unicode="&#xf4;" 
d="M819 102q-297 0 -507 210t-210 507v2457q0 72 14 142q14 68 40 133q49 117 166 166q59 24 118 24t118 -24q117 -48 166 -166q25 -59 25 -118t-25 -117q-8 -19 -8 -40v-2457q0 -43 31 -72q29 -31 72 -31h819q42 0 72 31q30 29 30 72v2457q0 43 -30 72q-30 31 -72 31h-410
q-127 0 -217 90t-90 217q0 102 90 201q97 106 217 106h410q296 0 507 -210q210 -210 210 -507v-2457q0 -297 -210 -507q-211 -210 -507 -210h-819zM1072 4166q-59 0 -118 24q-118 49 -166 166q-24 59 -24 118t24 118q49 117 166 166q65 26 133 40q69 14 141 14t142 -14
q68 -14 133 -40q117 -49 166 -166q24 -59 24 -118t-24 -118q-48 -117 -166 -166q-59 -24 -118 -24t-117 24q-19 8 -40 8q-20 0 -39 -8q-59 -24 -117 -24z" />
    <glyph glyph-name="otilde" unicode="&#xf5;" 
d="M819 102q-297 0 -507 210t-210 507v2457q0 72 14 142q14 68 40 133q49 117 166 166q59 24 118 24t118 -24q117 -48 166 -166q25 -59 25 -118t-25 -117q-8 -19 -8 -40v-2457q0 -43 31 -72q29 -31 72 -31h819q42 0 72 31q30 29 30 72v2457q0 43 -30 72q-30 31 -72 31h-410
q-127 0 -217 90t-90 217q0 102 90 201q97 106 217 106h410q296 0 507 -210q210 -210 210 -507v-2457q0 -297 -210 -507q-211 -210 -507 -210h-819zM662 4166q-59 0 -118 24q-118 49 -166 166q-24 59 -24 118t24 118q49 117 166 166q65 26 133 40q70 14 142 14h819q20 0 39 8
q59 25 118 25q58 0 117 -25q118 -49 167 -166q24 -59 24 -118t-24 -118q-50 -117 -167 -166q-64 -26 -132 -40q-70 -14 -142 -14h-819q-21 0 -40 -8q-58 -24 -117 -24z" />
    <glyph glyph-name="odieresis" unicode="&#xf6;" 
d="M819 102q-297 0 -507 210t-210 507v2457q0 72 14 142q14 68 40 133q49 117 166 166q59 24 118 24t118 -24q117 -48 166 -166q25 -59 25 -118t-25 -117q-8 -19 -8 -40v-2457q0 -43 31 -72q29 -31 72 -31h819q42 0 72 31q30 29 30 72v2457q0 43 -30 72q-30 31 -72 31h-410
q-127 0 -217 90t-90 217q0 102 90 201q97 106 217 106h410q296 0 507 -210q210 -210 210 -507v-2457q0 -297 -210 -507q-211 -210 -507 -210h-819zM819 4198q-127 0 -217 90t-90 217t90 217t217 90t217 -90t90 -217t-90 -217t-217 -90zM1638 4198q-127 0 -217 90t-90 217
t90 217t217 90t217 -90t90 -217t-90 -217t-217 -90z" />
    <glyph glyph-name="divide" unicode="&#xf7;" 
d="M1228 921q-127 0 -217 90t-90 217t90 217q90 91 217 91t217 -91q91 -90 91 -217t-91 -217q-90 -90 -217 -90zM409 1740q-127 0 -217 90q-90 91 -90 218q0 102 90 201q97 106 217 106h1639q120 0 217 -106q90 -99 90 -201q0 -127 -90 -218q-91 -90 -217 -90h-1639z
M1228 2560q-127 0 -217 90t-90 217t90 217t217 90t217 -90q91 -90 91 -217t-91 -217q-90 -90 -217 -90z" />
    <glyph glyph-name="oslash" unicode="&#xf8;" 
d="M174 2143q-35 72 -53 150q-19 81 -19 164v819q0 72 14 142q14 68 40 133q49 117 166 166q59 24 118 24t118 -24q117 -48 166 -166q25 -59 25 -118t-25 -117q-8 -19 -8 -40v-825q-162 -21 -304 -102q-139 -79 -238 -206zM819 102q-297 0 -507 210t-210 507v819
q0 296 210 507q210 210 507 210h819q42 0 72 30t30 72v819q0 43 -30 72q-30 31 -72 31h-410q-127 0 -217 90t-90 217q0 102 90 201q97 106 217 106h410q296 0 507 -210q210 -210 210 -507v-819q0 -296 -210 -507q-211 -210 -507 -210h-819q-43 0 -72 -30q-31 -30 -31 -72
v-819q0 -43 31 -72q29 -31 72 -31h819q42 0 72 31q30 29 30 72v825q163 21 305 102q138 79 238 206q35 -72 53 -150q19 -81 19 -164v-819q0 -297 -210 -507q-211 -210 -507 -210h-819z" />
    <glyph glyph-name="ugrave" unicode="&#xf9;" 
d="M819 102q-297 0 -507 210t-210 507v2867q0 120 106 217q99 90 201 90q127 0 217 -90t90 -217v-2867q0 -43 31 -72q29 -31 72 -31h819q42 0 72 31q30 29 30 72v2867q0 120 106 217q99 90 202 90q126 0 217 -90q90 -90 90 -217v-2867q0 -297 -210 -507q-211 -210 -507 -210
h-819zM1385 4166q-59 0 -117 24q-19 8 -40 8q-72 0 -141 14q-68 14 -133 40q-117 49 -166 166q-24 59 -24 118t24 118q48 117 166 166q59 25 118 25q58 0 117 -25q19 -8 39 -8q72 0 142 -14q68 -14 133 -40q117 -49 166 -166q24 -59 24 -118t-24 -118q-48 -117 -166 -166
q-59 -24 -118 -24z" />
    <glyph glyph-name="uacute" unicode="&#xfa;" 
d="M819 102q-297 0 -507 210t-210 507v2867q0 120 106 217q99 90 201 90q127 0 217 -90t90 -217v-2867q0 -43 31 -72q29 -31 72 -31h819q42 0 72 31q30 29 30 72v2867q0 120 106 217q99 90 202 90q126 0 217 -90q90 -90 90 -217v-2867q0 -297 -210 -507q-211 -210 -507 -210
h-819zM1072 4166q-59 0 -118 24q-118 49 -166 166q-24 59 -24 118t24 118q49 117 166 166q65 26 133 40q69 14 141 14q21 0 40 8q58 25 117 25t118 -25q118 -49 166 -166q24 -59 24 -118t-24 -118q-49 -117 -166 -166q-65 -26 -133 -40q-70 -14 -142 -14q-20 0 -39 -8
q-59 -24 -117 -24z" />
    <glyph glyph-name="ucircumflex" unicode="&#xfb;" 
d="M819 102q-297 0 -507 210t-210 507v2867q0 120 106 217q99 90 201 90q127 0 217 -90t90 -217v-2867q0 -43 31 -72q29 -31 72 -31h819q42 0 72 31q30 29 30 72v2867q0 120 106 217q99 90 202 90q126 0 217 -90q90 -90 90 -217v-2867q0 -297 -210 -507q-211 -210 -507 -210
h-819zM1072 4166q-59 0 -118 24q-118 49 -166 166q-24 59 -24 118t24 118q49 117 166 166q65 26 133 40q69 14 141 14t142 -14q68 -14 133 -40q117 -49 166 -166q24 -59 24 -118t-24 -118q-48 -117 -166 -166q-59 -24 -118 -24t-117 24q-19 8 -40 8q-20 0 -39 -8
q-59 -24 -117 -24z" />
    <glyph glyph-name="udieresis" unicode="&#xfc;" 
d="M819 102q-297 0 -507 210t-210 507v2867q0 120 106 217q99 90 201 90q127 0 217 -90t90 -217v-2867q0 -43 31 -72q29 -31 72 -31h819q42 0 72 31q30 29 30 72v2867q0 120 106 217q99 90 202 90q126 0 217 -90q90 -90 90 -217v-2867q0 -297 -210 -507q-211 -210 -507 -210
h-819zM819 4198q-127 0 -217 90t-90 217t90 217t217 90t217 -90t90 -217t-90 -217t-217 -90zM1638 4198q-127 0 -217 90t-90 217t90 217t217 90t217 -90t90 -217t-90 -217t-217 -90z" />
    <glyph glyph-name="yacute" unicode="&#xfd;" 
d="M1228 102q-127 0 -217 90t-90 217v1229q0 42 -30 72t-72 30q-297 0 -507 210q-210 211 -210 507v1229q0 120 106 217q99 90 201 90q127 0 217 -90t90 -217v-1229q0 -42 31 -72q29 -30 72 -30q296 0 507 -210q210 -211 210 -507v-1229q0 -120 -106 -217q-99 -90 -202 -90z
M1631 1740q-20 163 -101 305q-80 138 -206 238q72 35 150 53q80 19 164 19q42 0 72 30t30 72v1229q0 120 106 217q99 90 202 90q126 0 217 -90q90 -90 90 -217v-1229q0 -296 -210 -507q-211 -210 -507 -210h-7zM1072 4166q-59 0 -118 24q-118 49 -166 166q-24 59 -24 118
t24 118q49 117 166 166q65 26 133 40q69 14 141 14q21 0 40 8q58 25 117 25t118 -25q118 -49 166 -166q24 -59 24 -118t-24 -118q-49 -117 -166 -166q-65 -26 -133 -40q-70 -14 -142 -14q-20 0 -39 -8q-59 -24 -117 -24z" />
    <glyph glyph-name="thorn" unicode="&#xfe;" 
d="M819 921v615h819q42 0 72 30q30 29 30 72v819q0 43 -30 72q-30 31 -72 31h-819v614h819q296 0 507 -210q210 -210 210 -507v-819q0 -297 -210 -507q-211 -210 -507 -210h-819zM409 102q-127 0 -217 90t-90 217v3277q0 120 106 217q99 90 201 90q127 0 217 -90t90 -217
v-3277q0 -120 -105 -217q-99 -90 -202 -90z" />
    <glyph glyph-name="ydieresis" unicode="&#xff;" 
d="M1228 102q-127 0 -217 90t-90 217v1229q0 42 -30 72t-72 30q-297 0 -507 210q-210 211 -210 507v1229q0 120 106 217q99 90 201 90q127 0 217 -90t90 -217v-1229q0 -42 31 -72q29 -30 72 -30q296 0 507 -210q210 -211 210 -507v-1229q0 -120 -106 -217q-99 -90 -202 -90z
M1631 1740q-20 163 -101 305q-80 138 -206 238q72 35 150 53q80 19 164 19q42 0 72 30t30 72v1229q0 120 106 217q99 90 202 90q126 0 217 -90q90 -90 90 -217v-1229q0 -296 -210 -507q-211 -210 -507 -210h-7zM819 4198q-127 0 -217 90t-90 217t90 217t217 90t217 -90
t90 -217t-90 -217t-217 -90zM1638 4198q-127 0 -217 90t-90 217t90 217t217 90t217 -90t90 -217t-90 -217t-217 -90z" />
    <glyph glyph-name="OE" unicode="&#x152;" horiz-adv-x="4505" 
d="M2457 1740v615h819q127 0 217 -90q91 -91 91 -217q0 -127 -91 -218q-90 -90 -217 -90h-819zM819 102q-297 0 -507 210t-210 507v2457q0 72 14 142q14 68 40 133q49 117 166 166q59 24 118 24t118 -24q117 -48 166 -166q25 -59 25 -118t-25 -117q-8 -19 -8 -40v-2457
q0 -43 31 -72q29 -31 72 -31h825q21 -162 102 -304q79 -139 206 -238q-72 -35 -150 -53q-81 -19 -164 -19h-819zM2457 102q-296 0 -507 210q-210 210 -210 507v2457q0 43 -30 72q-30 31 -72 31h-410q-127 0 -217 90t-90 217q0 102 90 201q97 106 217 106h410q296 0 507 -210
q210 -210 210 -507v-2457q0 -43 30 -72q30 -31 72 -31h1229q127 0 217 -90t90 -217q0 -102 -90 -201q-97 -106 -217 -106h-1229zM2451 3379q-21 162 -102 304q-79 139 -206 238q72 35 150 53q81 19 164 19h819q21 0 40 8q58 24 117 24t118 -24q118 -49 166 -166
q24 -59 24 -118t-24 -118q-49 -117 -166 -166q-65 -26 -133 -40q-70 -14 -142 -14h-825z" />
    <glyph glyph-name="oe" unicode="&#x153;" horiz-adv-x="4505" 
d="M2457 1740v615h819q127 0 217 -90q91 -91 91 -217q0 -127 -91 -218q-90 -90 -217 -90h-819zM819 102q-297 0 -507 210t-210 507v2457q0 72 14 142q14 68 40 133q49 117 166 166q59 24 118 24t118 -24q117 -48 166 -166q25 -59 25 -118t-25 -117q-8 -19 -8 -40v-2457
q0 -43 31 -72q29 -31 72 -31h825q21 -162 102 -304q79 -139 206 -238q-72 -35 -150 -53q-81 -19 -164 -19h-819zM2457 102q-296 0 -507 210q-210 210 -210 507v2457q0 43 -30 72q-30 31 -72 31h-410q-127 0 -217 90t-90 217q0 102 90 201q97 106 217 106h410q296 0 507 -210
q210 -210 210 -507v-2457q0 -43 30 -72q30 -31 72 -31h1229q127 0 217 -90t90 -217q0 -102 -90 -201q-97 -106 -217 -106h-1229zM2451 3379q-21 162 -102 304q-79 139 -206 238q72 35 150 53q81 19 164 19h819q21 0 40 8q58 24 117 24t118 -24q118 -49 166 -166
q24 -59 24 -118t-24 -118q-49 -117 -166 -166q-65 -26 -133 -40q-70 -14 -142 -14h-825z" />
    <glyph glyph-name="Uring" unicode="&#x16e;" 
d="M819 102q-297 0 -507 210t-210 507v2048q0 120 106 217q99 90 201 90q127 0 217 -90t90 -217v-2048q0 -43 31 -72q29 -31 72 -31h819q42 0 72 31q30 29 30 72v2048q0 120 106 217q99 90 202 90q126 0 217 -90q90 -90 90 -217v-2048q0 -297 -210 -507q-211 -210 -507 -210
h-819zM1638 3993q42 0 72 30t30 73q0 42 -30 72t-72 30h-819q-43 0 -72 -30q-31 -30 -31 -72q0 -43 31 -73q29 -30 72 -30h819zM819 3379q-297 0 -507 209q-210 211 -210 508q0 296 210 507q210 209 507 209h819q296 0 507 -209q210 -211 210 -507q0 -297 -210 -508
q-211 -209 -507 -209h-819z" />
    <glyph glyph-name="uring" unicode="&#x16f;" 
d="M819 102q-297 0 -507 210t-210 507v2048q0 120 106 217q99 90 201 90q127 0 217 -90t90 -217v-2048q0 -43 31 -72q29 -31 72 -31h819q42 0 72 31q30 29 30 72v2048q0 120 106 217q99 90 202 90q126 0 217 -90q90 -90 90 -217v-2048q0 -297 -210 -507q-211 -210 -507 -210
h-819zM1638 3993q42 0 72 30t30 73q0 42 -30 72t-72 30h-819q-43 0 -72 -30q-31 -30 -31 -72q0 -43 31 -73q29 -30 72 -30h819zM819 3379q-297 0 -507 209q-210 211 -210 508q0 296 210 507q210 209 507 209h819q296 0 507 -209q210 -211 210 -507q0 -297 -210 -508
q-211 -209 -507 -209h-819z" />
    <glyph glyph-name="Ydieresis" unicode="&#x178;" 
d="M1228 102q-127 0 -217 90t-90 217v1229q0 42 -30 72t-72 30q-297 0 -507 210q-210 211 -210 507v1229q0 120 106 217q99 90 201 90q127 0 217 -90t90 -217v-1229q0 -42 31 -72q29 -30 72 -30q296 0 507 -210q210 -211 210 -507v-1229q0 -120 -106 -217q-99 -90 -202 -90z
M1631 1740q-20 163 -101 305q-80 138 -206 238q72 35 150 53q80 19 164 19q42 0 72 30t30 72v1229q0 120 106 217q99 90 202 90q126 0 217 -90q90 -90 90 -217v-1229q0 -296 -210 -507q-211 -210 -507 -210h-7zM819 4198q-127 0 -217 90t-90 217t90 217t217 90t217 -90
t90 -217t-90 -217t-217 -90zM1638 4198q-127 0 -217 90t-90 217t90 217t217 90t217 -90t90 -217t-90 -217t-217 -90z" />
    <glyph glyph-name="uni1E9E" unicode="&#x1e9e;" 
d="M1481 70q-59 0 -118 24q-117 49 -166 166q-24 59 -24 118t24 118q49 117 166 166q65 26 133 40q70 14 142 14q42 0 72 31q30 29 30 72v819q0 42 -30 72t-72 30h-410q-127 0 -217 90q-90 91 -90 218q0 102 90 201q97 106 217 106h410q42 0 72 30t30 72v819q0 43 -30 72
q-30 31 -72 31h-819q-43 0 -72 -31q-31 -29 -31 -72v-2867q0 -120 -105 -217q-99 -90 -202 -90q-127 0 -217 90t-90 217v2867q0 297 210 507t507 210h819q296 0 507 -210q210 -210 210 -507v-819q0 -112 -34 -219q-33 -102 -95 -190q62 -89 95 -191q34 -107 34 -219v-819
q0 -297 -210 -507q-211 -210 -507 -210q-21 0 -39 -8q-59 -24 -118 -24z" />
    <glyph glyph-name="emdash" unicode="&#x2014;" horiz-adv-x="3686" 
d="M409 1740q-127 0 -217 90q-90 91 -90 218q0 102 90 201q97 106 217 106h2458q120 0 217 -106q90 -99 90 -201q0 -127 -90 -218q-90 -90 -217 -90h-2458z" />
    <glyph glyph-name="quoteleft" unicode="&#x2018;" horiz-adv-x="1228" 
d="M409 2560q-127 0 -217 90t-90 217v819q0 120 106 217q99 90 201 90q127 0 217 -90t90 -217v-819q0 -121 -105 -217q-99 -90 -202 -90z" />
    <glyph glyph-name="quoteright" unicode="&#x2019;" horiz-adv-x="1228" 
d="M409 2560q-127 0 -217 90t-90 217v819q0 120 106 217q99 90 201 90q127 0 217 -90t90 -217v-819q0 -121 -105 -217q-99 -90 -202 -90z" />
    <glyph glyph-name="quotesinglbase" unicode="&#x201a;" horiz-adv-x="1228" 
d="M409 -716q-127 0 -217 90t-90 217v818q0 121 106 217q99 90 201 90q127 0 217 -90t90 -217v-818q0 -121 -105 -217q-99 -90 -202 -90z" />
    <glyph glyph-name="quotereversed" unicode="&#x201b;" horiz-adv-x="1228" 
d="M409 2560q-127 0 -217 90t-90 217v819q0 120 106 217q99 90 201 90q127 0 217 -90t90 -217v-819q0 -121 -105 -217q-99 -90 -202 -90z" />
    <glyph glyph-name="quotedblleft" unicode="&#x201c;" 
d="M409 2560q-127 0 -217 90t-90 217v819q0 120 106 217q99 90 201 90q127 0 217 -90t90 -217v-819q0 -121 -105 -217q-99 -90 -202 -90zM1638 2560q-127 0 -217 90t-90 217v819q0 120 105 217q100 90 202 90q127 0 217 -90t90 -217v-819q0 -121 -106 -217q-99 -90 -201 -90
z" />
    <glyph glyph-name="quotedblright" unicode="&#x201d;" 
d="M409 2560q-127 0 -217 90t-90 217v819q0 120 106 217q99 90 201 90q127 0 217 -90t90 -217v-819q0 -121 -105 -217q-99 -90 -202 -90zM1638 2560q-127 0 -217 90t-90 217v819q0 120 105 217q100 90 202 90q127 0 217 -90t90 -217v-819q0 -121 -106 -217q-99 -90 -201 -90
z" />
    <glyph glyph-name="quotedblbase" unicode="&#x201e;" 
d="M409 -716q-127 0 -217 90t-90 217v818q0 121 106 217q99 90 201 90q127 0 217 -90t90 -217v-818q0 -121 -105 -217q-99 -90 -202 -90zM1638 -716q-127 0 -217 90t-90 217v818q0 121 105 217q100 90 202 90q127 0 217 -90t90 -217v-818q0 -121 -106 -217q-99 -90 -201 -90
z" />
    <glyph glyph-name="dagger" unicode="&#x2020;" 
d="M409 2560q-127 0 -217 90t-90 217q0 102 90 201q97 106 217 106h410v-614h-410zM1638 2560v614h410q120 0 217 -106q90 -99 90 -201q0 -127 -90 -217q-91 -90 -217 -90h-410zM1228 102q-127 0 -217 90t-90 217v3277q0 120 106 217q99 90 201 90q127 0 217 -90
q91 -90 91 -217v-3277q0 -120 -106 -217q-99 -90 -202 -90z" />
    <glyph glyph-name="bullet" unicode="&#x2022;" horiz-adv-x="2048" 
d="M819 2355q42 0 72 30t30 72q0 43 -30 72q-30 31 -72 31q-43 0 -72 -31q-31 -29 -31 -72q0 -42 31 -72q29 -30 72 -30zM819 1740q-297 0 -507 210q-210 211 -210 507q0 297 210 507t507 210q296 0 507 -210q210 -210 210 -507q0 -296 -210 -507q-211 -210 -507 -210z" />
    <glyph glyph-name="ellipsis" unicode="&#x2026;" horiz-adv-x="4505" 
d="M409 102q-127 0 -217 90t-90 217t90 217t217 90t217 -90t90 -217t-90 -217t-217 -90zM2048 102q-127 0 -218 90q-90 90 -90 217t90 217q91 90 218 90q126 0 217 -90q90 -90 90 -217t-90 -217q-91 -90 -217 -90zM3686 102q-127 0 -217 90t-90 217t90 217t217 90t217 -90
t90 -217t-90 -217t-217 -90z" />
    <glyph glyph-name="guilsinglleft" unicode="&#x2039;" 
d="M1385 889q-59 0 -117 24q-19 8 -40 8q-296 0 -507 210q-209 210 -209 507v6q162 21 304 102q139 79 238 206q35 -72 53 -150q19 -81 19 -164q0 -43 30 -72q30 -30 72 -30q72 0 142 -14q68 -14 133 -41q117 -49 166 -166q24 -59 24 -118t-24 -118q-48 -117 -166 -166
q-59 -24 -118 -24zM409 1740q-127 0 -217 90q-90 91 -90 218q0 126 90 217q90 90 217 90q43 0 72 30q31 30 31 72q0 297 209 507q211 210 507 210q21 0 40 8q58 24 117 24t118 -24q118 -49 166 -166q24 -59 24 -118t-24 -118q-49 -117 -166 -166q-65 -27 -133 -41
q-70 -13 -142 -13q-42 0 -72 -31q-30 -29 -30 -72q0 -296 -210 -507q-210 -210 -507 -210z" />
    <glyph glyph-name="guilsinglright" unicode="&#x203a;" 
d="M481 889q-59 0 -118 24q-117 49 -166 166q-24 59 -24 118t24 118q49 117 166 166q65 27 133 41q70 14 142 14q42 0 72 30q30 29 30 72q0 296 210 507q211 210 507 210q127 0 217 -90q90 -91 90 -217q0 -127 -90 -218q-90 -90 -217 -90q-42 0 -72 -30t-30 -72
q0 -297 -210 -507q-211 -210 -507 -210q-21 0 -39 -8q-59 -24 -118 -24zM812 2143q-35 72 -53 150q-19 81 -19 164q0 43 -30 72q-30 31 -72 31q-72 0 -142 13q-68 14 -133 41q-117 49 -166 166q-24 59 -24 118t24 118q49 117 166 166q59 24 118 24t118 -24q18 -8 39 -8
q296 0 507 -210q210 -210 210 -507v-6q-163 -21 -305 -102q-138 -79 -238 -206z" />
    <glyph glyph-name="Euro" unicode="&#x20ac;" 
d="M409 1126q-127 0 -217 90t-90 217t90 217t217 90v-614zM1228 1126v614h410q120 0 217 -105q90 -99 90 -202q0 -127 -90 -217t-217 -90h-410zM409 2150q-127 0 -217 90t-90 217t90 217t217 90v-614zM1228 2150v614h410q120 0 217 -105q90 -99 90 -202q0 -127 -90 -217
t-217 -90h-410zM1228 102q-296 0 -507 210q-209 210 -209 507v2457q0 297 209 507q211 210 507 210h820q126 0 217 -90q90 -90 90 -217t-90 -217q-91 -90 -217 -90h-820q-42 0 -72 -31q-30 -29 -30 -72v-2457q0 -43 30 -72q30 -31 72 -31h820q126 0 217 -90q90 -90 90 -217
t-90 -217q-91 -90 -217 -90h-820z" />
    <glyph glyph-name="trademark" unicode="&#x2122;" 
d="M1638 716q42 0 72 31q30 29 30 72v2457q0 43 -30 72q-30 31 -72 31h-819q-43 0 -72 -31q-31 -29 -31 -72v-2457q0 -43 31 -72q29 -31 72 -31h819zM819 102q-297 0 -507 210t-210 507v2457q0 297 210 507t507 210h819q296 0 507 -210q210 -210 210 -507v-2457
q0 -297 -210 -507q-211 -210 -507 -210h-819z" />
    </font>
</defs>
</svg>
